<?xml version="1.0" encoding="utf-8"?>
<!-- Generator: Adobe Illustrator 18.0.0, SVG Export Plug-In . SVG Version: 6.00 Build 0)  -->
<!DOCTYPE svg PUBLIC "-//W3C//DTD SVG 1.1//EN" "http://www.w3.org/Graphics/SVG/1.1/DTD/svg11.dtd">
<svg version="1.1" id="Layer_1" xmlns="http://www.w3.org/2000/svg" xmlns:xlink="http://www.w3.org/1999/xlink" x="0px" y="0px"
	 viewBox="0 0 2048 2048" enable-background="new 0 0 2048 2048" xml:space="preserve">
<path fill="#0EDF48" d="M1724,508c18.7,18.7,34.7,44,48,76s20,61.3,20,88v1152c0,26.7-9.3,49.3-28,68s-41.3,28-68,28H352
	c-26.7,0-49.3-9.3-68-28s-28-41.3-28-68V224c0-26.7,9.3-49.3,28-68s41.3-28,68-28h896c26.7,0,56,6.7,88,20s57.3,29.3,76,48L1724,508
	z M1280,264v376h376c-6.7-19.3-14-33-22-41l-313-313C1313,278,1299.3,270.7,1280,264z M1664,1792V768h-416c-26.7,0-49.3-9.3-68-28
	s-28-41.3-28-68V256H384v1536H1664z M640,928c0-9.3,3-17,9-23s13.7-9,23-9h704c9.3,0,17,3,23,9s9,13.7,9,23v64c0,9.3-3,17-9,23
	s-13.7,9-23,9H672c-9.3,0-17-3-23-9s-9-13.7-9-23V928z M1376,1152c9.3,0,17,3,23,9s9,13.7,9,23v64c0,9.3-3,17-9,23s-13.7,9-23,9H672
	c-9.3,0-17-3-23-9s-9-13.7-9-23v-64c0-9.3,3-17,9-23s13.7-9,23-9H1376z M1376,1408c9.3,0,17,3,23,9s9,13.7,9,23v64c0,9.3-3,17-9,23
	s-13.7,9-23,9H672c-9.3,0-17-3-23-9s-9-13.7-9-23v-64c0-9.3,3-17,9-23s13.7-9,23-9H1376z"/>
</svg>
