<?xml version="1.0" encoding="utf-8"?>
<!-- Generator: Adobe Illustrator 18.0.0, SVG Export Plug-In . SVG Version: 6.00 Build 0)  -->
<!DOCTYPE svg PUBLIC "-//W3C//DTD SVG 1.1//EN" "http://www.w3.org/Graphics/SVG/1.1/DTD/svg11.dtd">
<svg version="1.1" id="Layer_1" xmlns="http://www.w3.org/2000/svg" xmlns:xlink="http://www.w3.org/1999/xlink" x="0px" y="0px"
	 viewBox="0 0 392 684" enable-background="new 0 0 392 684" xml:space="preserve">
<rect y="-1.4" fill="#222222" width="392" height="687.7"/>
<g>
	
		<radialGradient id="SVGID_1_" cx="201.9956" cy="314.3866" r="275.8606" gradientTransform="matrix(1.0071 0 0 1.5684 -8.311 -112.2036)" gradientUnits="userSpaceOnUse">
		<stop  offset="0.1966" style="stop-color:#555555"/>
		<stop  offset="1" style="stop-color:#222222"/>
	</radialGradient>
	<polygon fill="url(#SVGID_1_)" points="207.5,76.1 184.8,76.1 196.1,381.6 	"/>
	
		<radialGradient id="SVGID_2_" cx="201.9954" cy="314.3866" r="276.7386" gradientTransform="matrix(1.0071 0 0 1.5684 -8.311 -112.2036)" gradientUnits="userSpaceOnUse">
		<stop  offset="0.1966" style="stop-color:#555555"/>
		<stop  offset="1" style="stop-color:#222222"/>
	</radialGradient>
	<polygon fill="url(#SVGID_2_)" points="196.1,381.6 161.9,76.1 138.5,76.1 	"/>
	
		<radialGradient id="SVGID_3_" cx="201.9963" cy="314.3873" r="276.3385" gradientTransform="matrix(1.0071 0 0 1.5684 -8.311 -112.2036)" gradientUnits="userSpaceOnUse">
		<stop  offset="0.1966" style="stop-color:#555555"/>
		<stop  offset="1" style="stop-color:#222222"/>
	</radialGradient>
	<polygon fill="url(#SVGID_3_)" points="196.1,381.6 114.2,76.1 88.5,76.1 	"/>
	
		<radialGradient id="SVGID_4_" cx="201.9983" cy="314.3875" r="275.9095" gradientTransform="matrix(1.0071 0 0 1.5684 -8.311 -112.2036)" gradientUnits="userSpaceOnUse">
		<stop  offset="0.1966" style="stop-color:#555555"/>
		<stop  offset="1" style="stop-color:#222222"/>
	</radialGradient>
	<polygon fill="url(#SVGID_4_)" points="196.1,381.6 60.8,76.1 30.6,76.1 	"/>
	
		<radialGradient id="SVGID_5_" cx="201.9906" cy="314.166" r="277.6975" gradientTransform="matrix(1.0071 0 0 1.5684 -8.311 -112.2036)" gradientUnits="userSpaceOnUse">
		<stop  offset="0.1966" style="stop-color:#555555"/>
		<stop  offset="1" style="stop-color:#222222"/>
	</radialGradient>
	<polygon fill="url(#SVGID_5_)" points="0,129.6 196.1,381.2 0,80.8 	"/>
	
		<radialGradient id="SVGID_6_" cx="201.9896" cy="314.1701" r="277.3374" gradientTransform="matrix(1.0071 0 0 1.5684 -8.311 -112.2036)" gradientUnits="userSpaceOnUse">
		<stop  offset="0.1966" style="stop-color:#555555"/>
		<stop  offset="1" style="stop-color:#222222"/>
	</radialGradient>
	<polygon fill="url(#SVGID_6_)" points="0,204.3 196.1,381.2 0,170 	"/>
	
		<radialGradient id="SVGID_7_" cx="201.9894" cy="314.1663" r="277.7713" gradientTransform="matrix(1.0071 0 0 1.5684 -8.311 -112.2036)" gradientUnits="userSpaceOnUse">
		<stop  offset="0.1966" style="stop-color:#555555"/>
		<stop  offset="1" style="stop-color:#222222"/>
	</radialGradient>
	<polygon fill="url(#SVGID_7_)" points="0,261.2 196.1,381.2 0,234.3 	"/>
	
		<radialGradient id="SVGID_8_" cx="201.9894" cy="314.1632" r="278.202" gradientTransform="matrix(1.0071 0 0 1.5684 -8.311 -112.2036)" gradientUnits="userSpaceOnUse">
		<stop  offset="0.1966" style="stop-color:#555555"/>
		<stop  offset="1" style="stop-color:#222222"/>
	</radialGradient>
	<polygon fill="url(#SVGID_8_)" points="0,308.5 196.1,381.2 0,285.7 	"/>
	
		<radialGradient id="SVGID_9_" cx="201.9894" cy="314.1627" r="278.1565" gradientTransform="matrix(1.0071 0 0 1.5684 -8.311 -112.2036)" gradientUnits="userSpaceOnUse">
		<stop  offset="0.1966" style="stop-color:#555555"/>
		<stop  offset="1" style="stop-color:#222222"/>
	</radialGradient>
	<polygon fill="url(#SVGID_9_)" points="0,350.9 196.1,381.2 0,330.1 	"/>
	
		<radialGradient id="SVGID_10_" cx="201.9894" cy="314.1631" r="275.8482" gradientTransform="matrix(1.0071 0 0 1.5684 -8.311 -112.2036)" gradientUnits="userSpaceOnUse">
		<stop  offset="0.1966" style="stop-color:#555555"/>
		<stop  offset="1" style="stop-color:#222222"/>
	</radialGradient>
	<polygon fill="url(#SVGID_10_)" points="0,391.3 196.1,381.2 0,371.1 	"/>
	
		<radialGradient id="SVGID_11_" cx="201.9966" cy="314.3866" r="275.8325" gradientTransform="matrix(1.0071 0 0 1.5684 -8.311 -112.2036)" gradientUnits="userSpaceOnUse">
		<stop  offset="0.1966" style="stop-color:#555555"/>
		<stop  offset="1" style="stop-color:#222222"/>
	</radialGradient>
	<polygon fill="url(#SVGID_11_)" points="196.1,381.6 230.3,76.1 253.7,76.1 	"/>
	
		<radialGradient id="SVGID_12_" cx="202" cy="314.3873" r="275.824" gradientTransform="matrix(1.0071 0 0 1.5684 -8.311 -112.2036)" gradientUnits="userSpaceOnUse">
		<stop  offset="0.1966" style="stop-color:#555555"/>
		<stop  offset="1" style="stop-color:#222222"/>
	</radialGradient>
	<polygon fill="url(#SVGID_12_)" points="196.1,381.6 278.1,76.1 303.8,76.1 	"/>
	
		<radialGradient id="SVGID_13_" cx="202.0018" cy="314.3875" r="275.8317" gradientTransform="matrix(1.0071 0 0 1.5684 -8.311 -112.2036)" gradientUnits="userSpaceOnUse">
		<stop  offset="0.1966" style="stop-color:#555555"/>
		<stop  offset="1" style="stop-color:#222222"/>
	</radialGradient>
	<polygon fill="url(#SVGID_13_)" points="196.1,381.6 331.4,76.1 361.7,76.1 	"/>
	
		<radialGradient id="SVGID_14_" cx="201.7366" cy="314.166" r="275.8416" gradientTransform="matrix(1.0071 0 0 1.5684 -8.311 -112.2036)" gradientUnits="userSpaceOnUse">
		<stop  offset="0.1966" style="stop-color:#555555"/>
		<stop  offset="1" style="stop-color:#222222"/>
	</radialGradient>
	<polygon fill="url(#SVGID_14_)" points="392,129.6 195.9,381.2 392,80.8 	"/>
	
		<radialGradient id="SVGID_15_" cx="201.7366" cy="314.1701" r="275.8416" gradientTransform="matrix(1.0071 0 0 1.5684 -8.311 -112.2036)" gradientUnits="userSpaceOnUse">
		<stop  offset="0.1966" style="stop-color:#555555"/>
		<stop  offset="1" style="stop-color:#222222"/>
	</radialGradient>
	<polygon fill="url(#SVGID_15_)" points="392,204.3 195.9,381.2 392,170 	"/>
	
		<radialGradient id="SVGID_16_" cx="201.7389" cy="314.1663" r="275.8383" gradientTransform="matrix(1.0071 0 0 1.5684 -8.311 -112.2036)" gradientUnits="userSpaceOnUse">
		<stop  offset="0.1966" style="stop-color:#555555"/>
		<stop  offset="1" style="stop-color:#222222"/>
	</radialGradient>
	<polygon fill="url(#SVGID_16_)" points="392,261.2 195.9,381.2 392,234.3 	"/>
	
		<radialGradient id="SVGID_17_" cx="201.7389" cy="314.1632" r="275.8383" gradientTransform="matrix(1.0071 0 0 1.5684 -8.311 -112.2036)" gradientUnits="userSpaceOnUse">
		<stop  offset="0.1966" style="stop-color:#555555"/>
		<stop  offset="1" style="stop-color:#222222"/>
	</radialGradient>
	<polygon fill="url(#SVGID_17_)" points="392,308.5 195.9,381.2 392,285.7 	"/>
	
		<radialGradient id="SVGID_18_" cx="201.7389" cy="314.1627" r="275.8383" gradientTransform="matrix(1.0071 0 0 1.5684 -8.311 -112.2036)" gradientUnits="userSpaceOnUse">
		<stop  offset="0.1966" style="stop-color:#555555"/>
		<stop  offset="1" style="stop-color:#222222"/>
	</radialGradient>
	<polygon fill="url(#SVGID_18_)" points="392,350.9 195.9,381.2 392,330.1 	"/>
	
		<radialGradient id="SVGID_19_" cx="201.7389" cy="314.1631" r="275.8399" gradientTransform="matrix(1.0071 0 0 1.5684 -8.311 -112.2036)" gradientUnits="userSpaceOnUse">
		<stop  offset="0.1966" style="stop-color:#555555"/>
		<stop  offset="1" style="stop-color:#222222"/>
	</radialGradient>
	<polygon fill="url(#SVGID_19_)" points="392,391.3 195.9,381.2 392,371.1 	"/>
	
		<radialGradient id="SVGID_20_" cx="201.9956" cy="313.9848" r="275.8306" gradientTransform="matrix(1.0071 0 0 1.5684 -8.311 -112.2036)" gradientUnits="userSpaceOnUse">
		<stop  offset="0.1966" style="stop-color:#555555"/>
		<stop  offset="1" style="stop-color:#222222"/>
	</radialGradient>
	<polygon fill="url(#SVGID_20_)" points="207.5,686.4 184.8,686.4 196.1,380.9 	"/>
	
		<radialGradient id="SVGID_21_" cx="201.9954" cy="313.9848" r="275.8287" gradientTransform="matrix(1.0071 0 0 1.5684 -8.311 -112.2036)" gradientUnits="userSpaceOnUse">
		<stop  offset="0.1966" style="stop-color:#555555"/>
		<stop  offset="1" style="stop-color:#222222"/>
	</radialGradient>
	<polygon fill="url(#SVGID_21_)" points="196.1,380.9 161.9,686.4 138.5,686.4 	"/>
	
		<radialGradient id="SVGID_22_" cx="201.9963" cy="313.983" r="275.8312" gradientTransform="matrix(1.0071 0 0 1.5684 -8.311 -112.2036)" gradientUnits="userSpaceOnUse">
		<stop  offset="0.1966" style="stop-color:#555555"/>
		<stop  offset="1" style="stop-color:#222222"/>
	</radialGradient>
	<polygon fill="url(#SVGID_22_)" points="196.1,380.9 114.2,686.4 88.5,686.4 	"/>
	
		<radialGradient id="SVGID_23_" cx="201.9983" cy="313.983" r="275.8312" gradientTransform="matrix(1.0071 0 0 1.5684 -8.311 -112.2036)" gradientUnits="userSpaceOnUse">
		<stop  offset="0.1966" style="stop-color:#555555"/>
		<stop  offset="1" style="stop-color:#222222"/>
	</radialGradient>
	<polygon fill="url(#SVGID_23_)" points="196.1,380.9 60.8,686.4 30.6,686.4 	"/>
	
		<radialGradient id="SVGID_24_" cx="201.9906" cy="314.1714" r="275.8211" gradientTransform="matrix(1.0071 0 0 1.5684 -8.311 -112.2036)" gradientUnits="userSpaceOnUse">
		<stop  offset="0.1966" style="stop-color:#555555"/>
		<stop  offset="1" style="stop-color:#222222"/>
	</radialGradient>
	<polygon fill="url(#SVGID_24_)" points="0,632.8 196.1,381.2 0,681.6 	"/>
	
		<radialGradient id="SVGID_25_" cx="201.9896" cy="314.1617" r="275.8305" gradientTransform="matrix(1.0071 0 0 1.5684 -8.311 -112.2036)" gradientUnits="userSpaceOnUse">
		<stop  offset="0.1966" style="stop-color:#555555"/>
		<stop  offset="1" style="stop-color:#222222"/>
	</radialGradient>
	<polygon fill="url(#SVGID_25_)" points="0,558.1 196.1,381.2 0,592.4 	"/>
	
		<radialGradient id="SVGID_26_" cx="201.9894" cy="314.1615" r="275.8393" gradientTransform="matrix(1.0071 0 0 1.5684 -8.311 -112.2036)" gradientUnits="userSpaceOnUse">
		<stop  offset="0.1966" style="stop-color:#555555"/>
		<stop  offset="1" style="stop-color:#222222"/>
	</radialGradient>
	<polygon fill="url(#SVGID_26_)" points="0,501.2 196.1,381.2 0,528.1 	"/>
	
		<radialGradient id="SVGID_27_" cx="201.9894" cy="314.1649" r="275.8284" gradientTransform="matrix(1.0071 0 0 1.5684 -8.311 -112.2036)" gradientUnits="userSpaceOnUse">
		<stop  offset="0.1966" style="stop-color:#555555"/>
		<stop  offset="1" style="stop-color:#222222"/>
	</radialGradient>
	<polygon fill="url(#SVGID_27_)" points="0,453.9 196.1,381.2 0,476.7 	"/>
	
		<radialGradient id="SVGID_28_" cx="201.9894" cy="314.1634" r="275.824" gradientTransform="matrix(1.0071 0 0 1.5684 -8.311 -112.2036)" gradientUnits="userSpaceOnUse">
		<stop  offset="0.1966" style="stop-color:#555555"/>
		<stop  offset="1" style="stop-color:#222222"/>
	</radialGradient>
	<polygon fill="url(#SVGID_28_)" points="0,411.5 196.1,381.2 0,432.3 	"/>
	
		<radialGradient id="SVGID_29_" cx="201.9966" cy="313.9848" r="275.8215" gradientTransform="matrix(1.0071 0 0 1.5684 -8.311 -112.2036)" gradientUnits="userSpaceOnUse">
		<stop  offset="0.1966" style="stop-color:#555555"/>
		<stop  offset="1" style="stop-color:#222222"/>
	</radialGradient>
	<polygon fill="url(#SVGID_29_)" points="196.1,380.9 230.3,686.4 253.7,686.4 	"/>
	
		<radialGradient id="SVGID_30_" cx="202" cy="313.983" r="275.8352" gradientTransform="matrix(1.0071 0 0 1.5684 -8.311 -112.2036)" gradientUnits="userSpaceOnUse">
		<stop  offset="0.1966" style="stop-color:#555555"/>
		<stop  offset="1" style="stop-color:#222222"/>
	</radialGradient>
	<polygon fill="url(#SVGID_30_)" points="196.1,380.9 278.1,686.4 303.8,686.4 	"/>
	
		<radialGradient id="SVGID_31_" cx="202.0018" cy="313.983" r="275.8354" gradientTransform="matrix(1.0071 0 0 1.5684 -8.311 -112.2036)" gradientUnits="userSpaceOnUse">
		<stop  offset="0.1966" style="stop-color:#555555"/>
		<stop  offset="1" style="stop-color:#222222"/>
	</radialGradient>
	<polygon fill="url(#SVGID_31_)" points="196.1,380.9 331.4,686.4 361.7,686.4 	"/>
	
		<radialGradient id="SVGID_32_" cx="201.7366" cy="314.1714" r="275.8277" gradientTransform="matrix(1.0071 0 0 1.5684 -8.311 -112.2036)" gradientUnits="userSpaceOnUse">
		<stop  offset="0.1966" style="stop-color:#555555"/>
		<stop  offset="1" style="stop-color:#222222"/>
	</radialGradient>
	<polygon fill="url(#SVGID_32_)" points="392,632.8 195.9,381.2 392,681.6 	"/>
	
		<radialGradient id="SVGID_33_" cx="201.7366" cy="314.1617" r="275.8395" gradientTransform="matrix(1.0071 0 0 1.5684 -8.311 -112.2036)" gradientUnits="userSpaceOnUse">
		<stop  offset="0.1966" style="stop-color:#555555"/>
		<stop  offset="1" style="stop-color:#222222"/>
	</radialGradient>
	<polygon fill="url(#SVGID_33_)" points="392,558.1 195.9,381.2 392,592.4 	"/>
	
		<radialGradient id="SVGID_34_" cx="201.7389" cy="314.1615" r="275.8382" gradientTransform="matrix(1.0071 0 0 1.5684 -8.311 -112.2036)" gradientUnits="userSpaceOnUse">
		<stop  offset="0.1966" style="stop-color:#555555"/>
		<stop  offset="1" style="stop-color:#222222"/>
	</radialGradient>
	<polygon fill="url(#SVGID_34_)" points="392,501.2 195.9,381.2 392,528.1 	"/>
	
		<radialGradient id="SVGID_35_" cx="201.7389" cy="314.1649" r="275.8339" gradientTransform="matrix(1.0071 0 0 1.5684 -8.311 -112.2036)" gradientUnits="userSpaceOnUse">
		<stop  offset="0.1966" style="stop-color:#555555"/>
		<stop  offset="1" style="stop-color:#222222"/>
	</radialGradient>
	<polygon fill="url(#SVGID_35_)" points="392,453.9 195.9,381.2 392,476.7 	"/>
	
		<radialGradient id="SVGID_36_" cx="201.7389" cy="314.1634" r="275.8293" gradientTransform="matrix(1.0071 0 0 1.5684 -8.311 -112.2036)" gradientUnits="userSpaceOnUse">
		<stop  offset="0.1966" style="stop-color:#555555"/>
		<stop  offset="1" style="stop-color:#222222"/>
	</radialGradient>
	<polygon fill="url(#SVGID_36_)" points="392,411.5 195.9,381.2 392,432.3 	"/>
</g>
<g>
	<path fill="#FFFFFF" d="M65.3,7.3c-0.5-0.4-1.1-0.5-1.8-0.5c-0.6,0-1.1,0.1-1.5,0.3c-0.4,0.2-0.8,0.5-1,0.9s-0.5,0.8-0.6,1.3
		c-0.1,0.5-0.2,1-0.2,1.5c0,0.6,0.1,1.1,0.2,1.6c0.1,0.5,0.3,0.9,0.6,1.3s0.6,0.7,1.1,0.9c0.4,0.2,0.9,0.3,1.5,0.3
		c0.4,0,0.8-0.1,1.2-0.2c0.3-0.1,0.6-0.3,0.9-0.6c0.2-0.3,0.4-0.6,0.6-0.9c0.1-0.4,0.2-0.7,0.3-1.1h1.3c-0.1,1.3-0.6,2.2-1.3,2.9
		c-0.7,0.7-1.7,1-3,1c-0.8,0-1.4-0.1-2-0.4c-0.6-0.3-1.1-0.6-1.4-1.1c-0.4-0.5-0.7-1-0.9-1.6c-0.2-0.6-0.3-1.3-0.3-2
		c0-0.7,0.1-1.4,0.3-2c0.2-0.6,0.5-1.2,0.9-1.7s0.9-0.8,1.5-1.1c0.6-0.3,1.3-0.4,2-0.4c0.5,0,1,0.1,1.5,0.2c0.5,0.1,0.9,0.3,1.2,0.6
		c0.4,0.3,0.7,0.6,0.9,1s0.4,0.9,0.5,1.4h-1.3C66.1,8.2,65.8,7.7,65.3,7.3z"/>
	<path fill="#FFFFFF" d="M75.5,15.8C75.3,15.9,75,16,74.7,16c-0.3,0-0.5-0.1-0.7-0.3c-0.2-0.2-0.3-0.5-0.3-0.8
		c-0.3,0.4-0.7,0.7-1.1,0.8c-0.4,0.2-0.9,0.3-1.4,0.3c-0.3,0-0.6,0-0.9-0.1c-0.3-0.1-0.5-0.2-0.8-0.3c-0.2-0.2-0.4-0.4-0.5-0.6
		c-0.1-0.3-0.2-0.6-0.2-0.9c0-0.4,0.1-0.7,0.2-1c0.1-0.3,0.3-0.5,0.6-0.6c0.2-0.2,0.5-0.3,0.8-0.4s0.6-0.2,0.9-0.2
		c0.3-0.1,0.6-0.1,0.9-0.1c0.3,0,0.6-0.1,0.8-0.1c0.2-0.1,0.4-0.1,0.5-0.3c0.1-0.1,0.2-0.3,0.2-0.5c0-0.3,0-0.5-0.1-0.6
		c-0.1-0.2-0.2-0.3-0.4-0.4c-0.2-0.1-0.3-0.1-0.5-0.2c-0.2,0-0.4,0-0.6,0c-0.5,0-0.9,0.1-1.3,0.3c-0.3,0.2-0.5,0.5-0.5,1.1H69
		c0-0.4,0.1-0.8,0.3-1.1C69.5,9.4,69.7,9.2,70,9c0.3-0.2,0.6-0.3,1-0.4s0.7-0.1,1.1-0.1c0.3,0,0.6,0,1,0.1s0.6,0.1,0.9,0.3
		c0.3,0.1,0.5,0.3,0.6,0.6c0.2,0.3,0.2,0.6,0.2,1v3.7c0,0.3,0,0.5,0,0.6c0,0.1,0.1,0.2,0.3,0.2c0.1,0,0.2,0,0.4-0.1V15.8z
		 M73.6,12.1c-0.1,0.1-0.3,0.2-0.6,0.2c-0.2,0.1-0.5,0.1-0.8,0.1c-0.3,0-0.5,0.1-0.8,0.1c-0.3,0-0.5,0.1-0.7,0.2
		c-0.2,0.1-0.4,0.2-0.5,0.4c-0.1,0.2-0.2,0.4-0.2,0.7c0,0.2,0,0.4,0.1,0.5c0.1,0.1,0.2,0.2,0.3,0.3s0.3,0.1,0.4,0.2
		c0.2,0,0.3,0.1,0.5,0.1c0.4,0,0.7-0.1,1-0.2c0.3-0.1,0.5-0.2,0.7-0.4s0.3-0.3,0.4-0.5c0.1-0.2,0.1-0.4,0.1-0.5V12.1z"/>
	<path fill="#FFFFFF" d="M77.7,8.6v1.5h0c0.3-0.6,0.6-1,1.1-1.3c0.4-0.3,0.9-0.4,1.6-0.4v1.3c-0.5,0-0.9,0.1-1.2,0.2
		c-0.3,0.1-0.6,0.3-0.8,0.6c-0.2,0.3-0.4,0.6-0.4,0.9c-0.1,0.4-0.1,0.8-0.1,1.2v3.2h-1.2V8.6H77.7z"/>
	<path fill="#FFFFFF" d="M82.3,8.6v1.5h0c0.3-0.6,0.6-1,1.1-1.3c0.4-0.3,0.9-0.4,1.6-0.4v1.3c-0.5,0-0.9,0.1-1.2,0.2
		c-0.3,0.1-0.6,0.3-0.8,0.6c-0.2,0.3-0.4,0.6-0.4,0.9c-0.1,0.4-0.1,0.8-0.1,1.2v3.2h-1.2V8.6H82.3z"/>
	<path fill="#FFFFFF" d="M85.9,7.3V5.9h1.2v1.4H85.9z M87.1,8.6v7.2h-1.2V8.6H87.1z"/>
	<path fill="#FFFFFF" d="M94.1,15.4c-0.5,0.4-1.2,0.6-2,0.6c-0.6,0-1.1-0.1-1.5-0.3s-0.8-0.4-1.1-0.8c-0.3-0.3-0.5-0.7-0.6-1.2
		c-0.1-0.5-0.2-1-0.2-1.5c0-0.5,0.1-1,0.3-1.5c0.2-0.5,0.4-0.8,0.7-1.2c0.3-0.3,0.7-0.6,1.1-0.8s0.9-0.3,1.4-0.3
		c0.6,0,1.2,0.1,1.6,0.4c0.4,0.3,0.8,0.6,1,1s0.4,0.9,0.5,1.3c0.1,0.5,0.1,0.9,0.1,1.4h-5.4c0,0.3,0,0.6,0.1,0.9s0.2,0.5,0.4,0.8
		s0.4,0.4,0.7,0.5c0.3,0.1,0.6,0.2,1,0.2c0.5,0,0.9-0.1,1.2-0.3s0.5-0.6,0.6-1.1h1.2C94.9,14.4,94.6,15,94.1,15.4z M93.8,10.8
		c-0.1-0.3-0.3-0.5-0.4-0.6c-0.2-0.2-0.4-0.3-0.6-0.4c-0.2-0.1-0.5-0.2-0.8-0.2c-0.3,0-0.6,0.1-0.8,0.2c-0.2,0.1-0.5,0.3-0.6,0.4
		s-0.3,0.4-0.4,0.6c-0.1,0.2-0.2,0.5-0.2,0.8H94C93.9,11.3,93.9,11,93.8,10.8z"/>
	<path fill="#FFFFFF" d="M97.5,8.6v1.5h0c0.3-0.6,0.6-1,1.1-1.3c0.4-0.3,0.9-0.4,1.6-0.4v1.3c-0.5,0-0.9,0.1-1.2,0.2
		c-0.3,0.1-0.6,0.3-0.8,0.6c-0.2,0.3-0.4,0.6-0.4,0.9c-0.1,0.4-0.1,0.8-0.1,1.2v3.2h-1.2V8.6H97.5z"/>
</g>
<g>
	<path fill="#FFFFFF" d="M316.2,15.8V8.8h-2.6V7.8c0.3,0,0.7,0,1-0.1c0.3-0.1,0.6-0.1,0.9-0.3c0.3-0.1,0.5-0.3,0.6-0.6
		c0.2-0.2,0.3-0.5,0.4-0.9h0.9v9.9H316.2z"/>
	<path fill="#FFFFFF" d="M319.4,9.9c0-0.4,0.1-0.8,0.1-1.1s0.2-0.7,0.3-1.1c0.1-0.3,0.3-0.6,0.6-0.9c0.2-0.3,0.5-0.5,0.9-0.6
		c0.4-0.1,0.8-0.2,1.3-0.2s0.9,0.1,1.3,0.2c0.4,0.1,0.7,0.3,0.9,0.6s0.4,0.5,0.6,0.9c0.1,0.3,0.2,0.7,0.3,1.1s0.1,0.8,0.1,1.1
		c0,0.4,0,0.8,0,1.1c0,0.4,0,0.7,0,1.1s-0.1,0.8-0.1,1.1c-0.1,0.4-0.2,0.7-0.3,1.1c-0.1,0.3-0.3,0.6-0.6,0.9
		c-0.2,0.3-0.5,0.4-0.9,0.6c-0.4,0.1-0.8,0.2-1.3,0.2c-0.5,0-0.9-0.1-1.3-0.2c-0.4-0.1-0.7-0.3-0.9-0.6c-0.2-0.3-0.4-0.5-0.6-0.9
		c-0.1-0.3-0.2-0.7-0.3-1.1c-0.1-0.4-0.1-0.8-0.1-1.1s0-0.8,0-1.1C319.4,10.6,319.4,10.3,319.4,9.9z M320.7,12.2
		c0,0.5,0.1,0.9,0.2,1.3s0.3,0.7,0.6,1s0.7,0.4,1.2,0.4s0.9-0.1,1.2-0.4c0.3-0.3,0.5-0.6,0.6-1c0.1-0.4,0.2-0.8,0.2-1.3s0-0.9,0-1.2
		c0-0.2,0-0.5,0-0.8c0-0.3,0-0.6-0.1-0.9s-0.1-0.6-0.2-0.9c-0.1-0.3-0.2-0.5-0.3-0.7c-0.2-0.2-0.3-0.4-0.6-0.5
		C323.3,7.1,323,7,322.7,7s-0.6,0.1-0.8,0.2s-0.4,0.3-0.6,0.5c-0.2,0.2-0.3,0.5-0.3,0.7c-0.1,0.3-0.1,0.6-0.2,0.9
		c0,0.3-0.1,0.6-0.1,0.9s0,0.6,0,0.8C320.6,11.4,320.6,11.8,320.7,12.2z"/>
	<path fill="#FFFFFF" d="M327.2,9.9c0-0.4,0.1-0.8,0.1-1.1s0.2-0.7,0.3-1.1c0.1-0.3,0.3-0.6,0.6-0.9c0.2-0.3,0.5-0.5,0.9-0.6
		c0.4-0.1,0.8-0.2,1.3-0.2s0.9,0.1,1.3,0.2c0.4,0.1,0.7,0.3,0.9,0.6s0.4,0.5,0.6,0.9c0.1,0.3,0.2,0.7,0.3,1.1s0.1,0.8,0.1,1.1
		c0,0.4,0,0.8,0,1.1c0,0.4,0,0.7,0,1.1s-0.1,0.8-0.1,1.1c-0.1,0.4-0.2,0.7-0.3,1.1c-0.1,0.3-0.3,0.6-0.6,0.9
		c-0.2,0.3-0.5,0.4-0.9,0.6c-0.4,0.1-0.8,0.2-1.3,0.2c-0.5,0-0.9-0.1-1.3-0.2c-0.4-0.1-0.7-0.3-0.9-0.6c-0.2-0.3-0.4-0.5-0.6-0.9
		c-0.1-0.3-0.2-0.7-0.3-1.1c-0.1-0.4-0.1-0.8-0.1-1.1s0-0.8,0-1.1C327.1,10.6,327.1,10.3,327.2,9.9z M328.4,12.2
		c0,0.5,0.1,0.9,0.2,1.3s0.3,0.7,0.6,1s0.7,0.4,1.2,0.4s0.9-0.1,1.2-0.4c0.3-0.3,0.5-0.6,0.6-1c0.1-0.4,0.2-0.8,0.2-1.3s0-0.9,0-1.2
		c0-0.2,0-0.5,0-0.8c0-0.3,0-0.6-0.1-0.9s-0.1-0.6-0.2-0.9c-0.1-0.3-0.2-0.5-0.3-0.7c-0.2-0.2-0.3-0.4-0.6-0.5
		C331,7.1,330.7,7,330.4,7s-0.6,0.1-0.8,0.2s-0.4,0.3-0.6,0.5c-0.2,0.2-0.3,0.5-0.3,0.7c-0.1,0.3-0.1,0.6-0.2,0.9
		c0,0.3-0.1,0.6-0.1,0.9s0,0.6,0,0.8C328.4,11.4,328.4,11.8,328.4,12.2z"/>
	<path fill="#FFFFFF" d="M335.7,7.7c0.1-0.3,0.2-0.6,0.4-0.9c0.2-0.3,0.4-0.5,0.7-0.6C337,6,337.4,6,337.8,6c0.4,0,0.8,0.1,1.1,0.2
		s0.5,0.3,0.7,0.6s0.3,0.5,0.4,0.9s0.1,0.7,0.1,1.1c0,0.4,0,0.7-0.1,1.1c-0.1,0.3-0.2,0.6-0.4,0.9c-0.2,0.3-0.4,0.5-0.7,0.6
		c-0.3,0.2-0.6,0.2-1,0.2c-0.4,0-0.8-0.1-1.1-0.2s-0.5-0.3-0.7-0.6s-0.3-0.5-0.4-0.9c-0.1-0.3-0.1-0.7-0.1-1.1
		C335.6,8.4,335.6,8.1,335.7,7.7z M336.6,9.4c0,0.2,0.1,0.5,0.2,0.7c0.1,0.2,0.2,0.4,0.4,0.5c0.2,0.1,0.4,0.2,0.6,0.2
		c0.3,0,0.5-0.1,0.6-0.2c0.2-0.1,0.3-0.3,0.4-0.5c0.1-0.2,0.1-0.4,0.2-0.7c0-0.2,0-0.5,0-0.7c0-0.2,0-0.4,0-0.7
		c0-0.2-0.1-0.5-0.2-0.7s-0.2-0.4-0.4-0.5c-0.2-0.1-0.4-0.2-0.6-0.2c-0.3,0-0.5,0.1-0.6,0.2c-0.2,0.1-0.3,0.3-0.4,0.5
		s-0.1,0.4-0.2,0.7c0,0.2,0,0.5,0,0.7C336.6,9,336.6,9.2,336.6,9.4z M345.6,5.8l-7.5,10.3h-1.2l7.5-10.3H345.6z M342.6,12.2
		c0.1-0.3,0.2-0.6,0.4-0.9c0.2-0.3,0.4-0.5,0.7-0.6c0.3-0.2,0.6-0.2,1.1-0.2c0.4,0,0.8,0.1,1.1,0.2c0.3,0.1,0.5,0.3,0.7,0.6
		c0.2,0.3,0.3,0.5,0.4,0.9c0.1,0.3,0.1,0.7,0.1,1.1c0,0.4,0,0.7-0.1,1.1c-0.1,0.3-0.2,0.6-0.4,0.9c-0.2,0.3-0.4,0.5-0.7,0.6
		c-0.3,0.2-0.6,0.2-1,0.2c-0.4,0-0.8-0.1-1.1-0.2c-0.3-0.1-0.5-0.3-0.7-0.6c-0.2-0.2-0.3-0.5-0.4-0.9c-0.1-0.3-0.1-0.7-0.1-1.1
		C342.4,12.9,342.5,12.5,342.6,12.2z M343.5,13.9c0,0.2,0.1,0.5,0.2,0.7c0.1,0.2,0.2,0.4,0.4,0.5c0.2,0.1,0.4,0.2,0.6,0.2
		c0.3,0,0.5-0.1,0.6-0.2c0.2-0.1,0.3-0.3,0.4-0.5c0.1-0.2,0.1-0.4,0.2-0.7c0-0.2,0-0.5,0-0.7c0-0.2,0-0.4,0-0.7
		c0-0.2-0.1-0.5-0.2-0.7c-0.1-0.2-0.2-0.4-0.4-0.5c-0.2-0.1-0.4-0.2-0.6-0.2c-0.3,0-0.5,0.1-0.6,0.2c-0.2,0.1-0.3,0.3-0.4,0.5
		c-0.1,0.2-0.1,0.4-0.2,0.7c0,0.2,0,0.5,0,0.7C343.5,13.4,343.5,13.6,343.5,13.9z"/>
</g>
<g>
	<path fill="#FFFFFF" d="M169.6,13.2c0,0.4,0.2,0.8,0.5,1.1c0.3,0.3,0.6,0.4,1.1,0.4c0.5,0,0.8-0.1,1.1-0.4s0.5-0.6,0.6-0.9
		c0.2-0.4,0.3-0.8,0.3-1.2c0.1-0.4,0.1-0.8,0.1-1.2l0,0c-0.2,0.4-0.6,0.7-1,0.9c-0.4,0.2-0.8,0.3-1.3,0.3c-0.5,0-1-0.1-1.4-0.3
		s-0.8-0.4-1.1-0.7c-0.3-0.3-0.5-0.7-0.7-1.1c-0.2-0.4-0.2-0.9-0.2-1.5c0-0.5,0.1-1,0.2-1.4c0.2-0.4,0.4-0.8,0.7-1.1
		c0.3-0.3,0.7-0.6,1.1-0.8c0.5-0.2,1-0.3,1.5-0.3c0.7,0,1.4,0.1,1.8,0.4s0.9,0.7,1.1,1.2c0.3,0.5,0.5,1.1,0.6,1.8
		c0.1,0.7,0.2,1.4,0.2,2.2c0,0.6-0.1,1.3-0.2,1.9s-0.4,1.2-0.7,1.8c-0.3,0.5-0.7,1-1.2,1.3c-0.5,0.3-1.1,0.5-1.9,0.5
		c-0.4,0-0.8-0.1-1.2-0.2c-0.4-0.1-0.7-0.3-1-0.6c-0.3-0.3-0.5-0.6-0.7-0.9c-0.2-0.4-0.3-0.7-0.3-1.2H169.6z M171.2,6.5
		c-0.3,0-0.6,0.1-0.8,0.2c-0.2,0.1-0.4,0.3-0.6,0.5c-0.2,0.2-0.3,0.4-0.3,0.7s-0.1,0.5-0.1,0.8c0,0.3,0,0.6,0.1,0.8
		c0.1,0.3,0.2,0.5,0.3,0.7c0.2,0.2,0.3,0.4,0.6,0.5s0.5,0.2,0.8,0.2c0.3,0,0.6-0.1,0.8-0.2s0.4-0.3,0.6-0.5s0.3-0.4,0.4-0.7
		c0.1-0.3,0.1-0.5,0.1-0.8c0-0.3,0-0.6-0.1-0.8c-0.1-0.3-0.2-0.5-0.4-0.7c-0.2-0.2-0.4-0.4-0.6-0.5S171.6,6.5,171.2,6.5z"/>
	<path fill="#FFFFFF" d="M176.6,8.2h2.1v2h-2.1V8.2z M176.6,13.8h2.1v2h-2.1V13.8z"/>
	<path fill="#FFFFFF" d="M187.6,15.8h-7.2c0-0.9,0.2-1.6,0.6-2.3c0.4-0.7,1-1.2,1.7-1.7c0.3-0.3,0.7-0.5,1.1-0.7
		c0.4-0.2,0.7-0.5,1-0.8c0.3-0.3,0.6-0.6,0.8-0.9c0.2-0.3,0.3-0.7,0.3-1.1c0-0.2,0-0.4-0.1-0.6c0-0.2-0.1-0.4-0.3-0.6
		c-0.1-0.2-0.3-0.3-0.5-0.5c-0.2-0.1-0.5-0.2-0.9-0.2c-0.3,0-0.6,0.1-0.9,0.2s-0.4,0.3-0.5,0.6c-0.1,0.2-0.2,0.5-0.3,0.8
		c-0.1,0.3-0.1,0.7-0.1,1h-1.7c0-0.6,0.1-1.1,0.2-1.6c0.2-0.5,0.4-0.9,0.7-1.3c0.3-0.4,0.7-0.6,1.1-0.9c0.4-0.2,1-0.3,1.6-0.3
		c0.6,0,1.2,0.1,1.6,0.3c0.4,0.2,0.8,0.5,1.1,0.8c0.3,0.3,0.5,0.7,0.6,1.1c0.1,0.4,0.2,0.7,0.2,1.1c0,0.4-0.1,0.8-0.2,1.1
		c-0.1,0.3-0.3,0.7-0.5,0.9c-0.2,0.3-0.5,0.6-0.8,0.8c-0.3,0.2-0.6,0.5-0.9,0.7s-0.6,0.4-0.9,0.6s-0.6,0.4-0.8,0.6
		c-0.3,0.2-0.5,0.4-0.7,0.6c-0.2,0.2-0.3,0.4-0.4,0.7h5.2V15.8z"/>
	<path fill="#FFFFFF" d="M190.1,5.2h5.5v1.5h-4.2l-0.5,2.7l0,0c0.2-0.3,0.5-0.5,0.9-0.6c0.4-0.1,0.7-0.2,1.1-0.2
		c0.5,0,1,0.1,1.4,0.3c0.4,0.2,0.8,0.4,1,0.7c0.3,0.3,0.5,0.7,0.6,1.1c0.1,0.4,0.2,0.9,0.2,1.4c0,0.4-0.1,0.9-0.2,1.3
		c-0.1,0.4-0.4,0.9-0.7,1.2c-0.3,0.4-0.7,0.7-1.1,0.9c-0.5,0.2-1,0.4-1.7,0.4c-0.5,0-1-0.1-1.4-0.2c-0.4-0.1-0.8-0.3-1.2-0.6
		s-0.6-0.6-0.8-1s-0.3-0.9-0.3-1.4h1.7c0.1,0.6,0.2,1,0.6,1.3c0.3,0.3,0.8,0.5,1.4,0.5c0.4,0,0.7-0.1,0.9-0.2
		c0.3-0.1,0.5-0.3,0.6-0.5s0.3-0.5,0.3-0.7c0.1-0.3,0.1-0.6,0.1-0.9c0-0.3,0-0.6-0.1-0.8c-0.1-0.3-0.2-0.5-0.4-0.7
		c-0.2-0.2-0.4-0.4-0.6-0.5s-0.6-0.2-0.9-0.2c-0.4,0-0.7,0.1-1,0.2s-0.5,0.4-0.7,0.8h-1.7L190.1,5.2z"/>
	<path fill="#FFFFFF" d="M202,5h4.8c0.8,0,1.4,0.1,1.9,0.3c0.5,0.2,0.9,0.5,1.1,0.8c0.3,0.3,0.4,0.7,0.5,1.1
		c0.1,0.4,0.1,0.8,0.1,1.1s0,0.7-0.1,1.1c-0.1,0.4-0.3,0.7-0.5,1.1c-0.3,0.3-0.6,0.6-1.1,0.8c-0.5,0.2-1.1,0.3-1.9,0.3h-2.9v4.1H202
		V5z M203.9,10.1h2.8c0.2,0,0.4,0,0.7-0.1c0.2-0.1,0.4-0.2,0.6-0.3c0.2-0.1,0.3-0.3,0.5-0.5s0.2-0.5,0.2-0.9c0-0.4-0.1-0.6-0.2-0.9
		c-0.1-0.2-0.2-0.4-0.4-0.6c-0.2-0.1-0.4-0.2-0.6-0.3c-0.2-0.1-0.5-0.1-0.7-0.1h-2.8V10.1z"/>
	<path fill="#FFFFFF" d="M212,5h2.7l3,8.5h0l2.9-8.5h2.6v10.8h-1.8V7.5h0l-3,8.3h-1.6l-3-8.3h0v8.3H212V5z"/>
</g>
<path fill="#FFFFFF" d="M380.5,14c0,0.7-0.5,1.2-1.2,1.2h-22.4c-0.7,0-1.2-0.5-1.2-1.2V7.4c0-0.7,0.5-1.2,1.2-1.2h22.4
	c0.7,0,1.2,0.5,1.2,1.2V14z"/>
<path fill="#FFFFFF" d="M381.8,5.5c0.7,0,1.2,0.5,1.2,1.2v7.9c0,0.7-0.5,1.2-1.2,1.2h-23.9c-0.7,0-1.2-0.5-1.2-1.2V6.8
	c0-0.7,0.6-1.2,1.2-1.2H381.8 M381.8,4.9h-23.9c-1,0-1.8,0.8-1.8,1.8v7.9c0,1,0.8,1.8,1.8,1.8h23.9c1,0,1.8-0.8,1.8-1.8V6.8
	C383.6,5.8,382.8,4.9,381.8,4.9"/>
<path fill="#FFFFFF" d="M384.2,8.2v4.4c1.1-0.4,1.8-1.2,1.8-2.2S385.3,8.5,384.2,8.2"/>
<path fill="#FFFFFF" d="M13.9,7.4c-1.8,0-3.3,1.5-3.3,3.3S12,14,13.9,14c1.8,0,3.3-1.5,3.3-3.3S15.7,7.4,13.9,7.4"/>
<path fill="#FFFFFF" d="M22.3,7.4c-1.8,0-3.3,1.5-3.3,3.3s1.5,3.3,3.3,3.3c1.8,0,3.3-1.5,3.3-3.3S24.1,7.4,22.3,7.4"/>
<path fill="#FFFFFF" d="M30.7,7.4c-1.8,0-3.3,1.5-3.3,3.3s1.5,3.3,3.3,3.3c1.8,0,3.3-1.5,3.3-3.3S32.5,7.4,30.7,7.4"/>
<path fill="#FFFFFF" d="M39.1,7.4c-1.8,0-3.3,1.5-3.3,3.3s1.5,3.3,3.3,3.3c1.8,0,3.3-1.5,3.3-3.3S40.9,7.4,39.1,7.4"/>
<path fill="#FFFFFF" d="M47.5,7.4c-1.8,0-3.3,1.5-3.3,3.3s1.5,3.3,3.3,3.3c1.8,0,3.3-1.5,3.3-3.3S49.3,7.4,47.5,7.4 M47.5,13.4
	c-1.5,0-2.7-1.2-2.7-2.7C44.8,9.2,46,8,47.5,8c1.5,0,2.7,1.2,2.7,2.7C50.2,12.2,49,13.4,47.5,13.4"/>
<path fill="#FFFFFF" d="M113.3,13.4c-0.7-0.7-1.6-1.2-2.7-1.2c-1.1,0-2,0.5-2.7,1.2l2.7,2.7L113.3,13.4z"/>
<path fill="#FFFFFF" d="M110.6,10.1c1.7,0,3.1,0.7,4.2,1.8l0.9-0.9c-1.3-1.4-3.1-2.2-5.1-2.2c-2,0-3.8,0.9-5.1,2.2l0.9,0.9
	C107.4,10.8,108.9,10.1,110.6,10.1"/>
<path fill="#FFFFFF" d="M110.6,6.5c2.7,0,5,1.1,6.8,2.9l0.9-0.9c-1.9-2-4.6-3.2-7.6-3.2c-3,0-5.7,1.3-7.6,3.3l0.9,0.9
	C105.5,7.6,107.9,6.5,110.6,6.5"/>
<rect x="8.2" y="2.9" fill="none" width="377.9" height="16.6"/>
<rect y="22.8" fill="#333333" width="392" height="53.3"/>
<g>
	<g>
		<path fill="#FFFFFF" d="M206.4,47.3c0-3.1-2.9-5.6-6.4-5.6c-2.1,0-3.9,0.9-5.1,2.2c-1.2-1.4-3-2.2-5.1-2.2c-3.5,0-6.4,2.5-6.4,5.6
			c0,0,0,11.3,0,11.3c0,0.4,0.3,0.7,0.7,0.7c0,0,3.6,0,3.6,0c0.4,0,0.7-0.3,0.7-0.7c0,0,0-9.9,0-9.9c0.1-1.4,0.6-2.3,2-2.3
			c1.1,0,2,0.8,2,2.3c0,0,0,9.9,0,9.9c0,0.4,0.3,0.7,0.7,0.7c0,0,3.6,0,3.6,0c0.4,0,0.7-0.3,0.7-0.7c0,0,0-9.9,0-9.9h0
			c0-1.4,0.9-2.3,2-2.3c1.3,0,1.9,0.9,2,2.3c0,0,0,9.9,0,9.9c0,0.4,0.3,0.7,0.7,0.7c0,0,3.6,0,3.6,0c0.4,0,0.7-0.3,0.7-0.7
			C206.4,58.6,206.4,47.3,206.4,47.3z"/>
		<path fill="#FFFFFF" d="M244.4,41.8c-4.8,0-8.3,4.3-8.3,8.9c0,2,0.6,3.9,1.7,5.4h-2.1c-3.5,0-3.7-3-3.7-6.1v-4.8h2.7
			c0.4,0,0.7-0.3,0.7-0.7c0,0,0-2.1,0-2.1c0-0.4-0.3-0.7-0.7-0.7c0,0-2.7,0-2.7,0s0-3.8,0-3.8c0-0.4-0.3-0.7-0.7-0.7
			c0,0-3.6,0-3.6,0c-0.4,0-0.7,0.3-0.7,0.7c0,0,0,3.8,0,3.8l-10.7,0c-4.8,0-8.3,4.3-8.3,8.9c0,4.6,3.5,8.9,8.3,8.9
			c4.8,0,8.3-4.3,8.3-8.9c0-2-0.6-3.9-1.7-5.4h4.2v7.1c0,2,0.7,3.9,2.4,5.4c0,0,1.7,1.8,6.2,1.8l0.1,0h7.4c3.9,0,6-1.2,7.5-3.1
			c1.3-1.6,2-3.7,2-5.8C252.6,46.1,249.1,41.8,244.4,41.8z M216.3,55c-2.1,0-3.2-2.2-3.2-4.3c0-2.1,1.1-4.3,3.2-4.3s3.2,2.2,3.2,4.3
			C219.5,52.8,218.4,55,216.3,55z M244.4,55c-2.1,0-3.2-2.2-3.2-4.3c0-2.1,1.1-4.3,3.2-4.3c2.1,0,3.2,2.2,3.2,4.3
			C247.5,52.8,246.4,55,244.4,55z"/>
	</g>
	<g>
		<path fill="#FFFFFF" stroke="#FFFFFF" stroke-width="0.25" stroke-miterlimit="10" d="M169.1,38.6c-0.2-1.2-2.1-0.1-2.6-1.2
			c-0.5-1,2-1.5,1.3-2.6c-0.8-1.3-1.7,0.8-2.6,0.7c-0.2,0-0.3-0.1-0.4-0.2c0,0,0.1,0,0.1-0.1c0.8-0.5,1.3-1.3,0.6-2.2
			c-0.9-1.1-3.7-0.1-2.5,2.4c-4.6-4.3-12.4-5.5-16.3-1.6c-5.7,5.8-0.7,12.1,3.3,16.3c-0.3,0.1-0.6,0.2-0.9,0.4
			c-3.7,1.4-7.1,1.1-8.7,1.1c-0.2,0-0.3,0-0.4,0.1c-0.1,0.1-0.1,0.3-0.1,0.3l0,0.3c0,0-0.5,9.2,4.9,13.7c4.9,4.1,12,1.7,14-10.1
			c8.7,0.9,17.6,0.5,19.2-4.9C179.5,45.5,175.2,40.6,169.1,38.6z M165,35.9c1.2,0.1,1.7-1.8,2.3-0.7c0.6,1-1.8,1.3-1.3,2.4
			c0.5,1.2,2.7,0,2.7,1.4c0,0.6-1.6,0.6-1.8,1.5c-0.1,1,1.6,1.4,0.6,2.8c-0.6,0.9-1.9,0.5-2.5,0.2c1.5-1.9,1.2-4.2-0.7-6.7
			c-0.3-0.3-0.5-0.7-0.8-1c0.2-0.1,0.5-0.2,0.8-0.3C164.5,35.7,164.7,35.8,165,35.9z M168,43.5c0.2-0.4,0.3-0.7,0.3-1
			c6.2,3.1,3.4,7.1-0.6,6.7c-4.2-0.4-8.2-2.9-9.3-3.7c1.7,0.7,4,0.7,6.2-1.6c0.1-0.1,0.2-0.2,0.3-0.3C165.6,44,167.4,44.6,168,43.5z
			 M158.1,55.2c-1.1-0.1-2.2-0.2-3.3-0.4c-0.5-0.9-1.2-1.8-2.1-2.7c-0.5-0.5-1.1-1.2-1.8-1.8c3.6-2,5.5-4.7,5.9-5.4
			c0.1,0.1,0.1,0.1,0.1,0.1c0.7,0.5,1.3,0.9,2,1.3C158.9,49.7,158.6,52.7,158.1,55.2z M163,36c2.7,3,3,5.9,1.2,7.9
			c-4,4.3-8.1,0.1-8.4-0.7c-0.4-1.1,0.2-1.3,0.9-1.7c0.1-0.1,0-0.4,0.2-0.4c0.2-0.1,0.7,0.4,1,0.5c1.5,0.6,1.4-0.1,1.3-0.2
			c-1-0.4-1.2-1.2-1.1-1.2c0.2-0.1,1,0.1,1.2-0.1c0.5-0.4-0.8-1.9-0.7-2.2c0.1-0.4,2.9-1.3,3.7-1.6C162.4,36.2,162.7,36.1,163,36z
			 M158.2,37.7c-0.1,0.3,1,1.8,0.6,2.1c-0.3,0.2-1.1,0-1.2,0.2c-0.1,0.1,0.1,0.5,0.5,1c0.1,0.1,0.4,0.4,0.4,0.4c0,0-0.1,0.3-1.2-0.4
			c-0.3-0.2-0.6-0.5-0.7-0.4c-0.1,0.1-0.1,0.6-0.2,0.6c-0.7,0.3-1.4,0.3-1.3,1.4c0,0.1,0.1,0.3,0.2,0.5c-1.6-1.6-3-3.9-1.6-6.1
			c1.4-2,4.5-1.3,6-0.2C159,37.2,158.3,37.6,158.2,37.7z M164.8,33.2c0.7,0.5,0.3,1.3-0.4,1.7c-0.7,0.4-1.2,0.6-1.2,0.6
			C162,33.7,163.9,32.5,164.8,33.2z M147.2,34.5c3.8-3.7,11.4-3.1,15.6,1.2c-0.6,0.2-1.6,0.6-2.6,1c-1.7-1.2-5.6-2.6-7.2,0.4
			c-1.6,2.8,2.5,6.6,3.6,7.6c-0.5,0.7-2.7,3.4-6.2,5.1C146.7,46,141.9,40.3,147.2,34.5z M149,51.1c0.5-0.2,1-0.4,1.4-0.6
			c1.1,1.1,2.1,2.1,2.7,2.8c0.4,0.5,0.8,1,1.1,1.4c-6.1-0.9-11.5-2.2-13.1-2.6C142.8,52.2,146.3,52.2,149,51.1z M144.1,64.2
			c-3.8-4.3-3.9-10-3.9-12c0,0,0-0.1,0-0.1c0,0,0,0,0,0c0,0,0,0,0,0c0.7,0.2,7,1.9,14.3,3.1c2.5,4,1.4,7.3-0.6,9.5l0,0
			C150.8,67.7,146.9,67.4,144.1,64.2z M155.8,62.1c0.5-1.5,1-3.8-0.7-6.8c1,0.1,2,0.3,3,0.4C157.5,58.3,156.7,60.4,155.8,62.1z
			 M177.1,50.6c-1.7,4.9-10.1,5.5-18.3,4.7c0.4-2.5,0.6-5.4,0.4-8.8c13.2,8.1,17.7-0.6,9-4.2c-0.2-0.6-0.9-1.1-0.8-1.8
			c0.1-1,1.7-0.8,1.8-1.6C174.1,40.7,179,45.4,177.1,50.6z"/>
		<path fill="#FFFFFF" stroke="#FFFFFF" stroke-width="0.25" stroke-miterlimit="10" d="M162.2,38.7c-0.1-0.4-0.3-0.5-0.4-0.6
			c-0.2-0.2-0.5-0.2-0.6-0.1c-0.2,0.2-0.1,0.5,0.1,0.7c0.2,0.2,0.5,0.3,0.7,0.1c0.2,0.3,0.1,0.7,0.2,0.7
			C162.3,39.6,162.4,39.3,162.2,38.7z"/>
	</g>
</g>
<g>
	<polygon fill="#222222" points="196.2,177.6 187.6,184.3 178.2,178.9 170.6,186.7 160.5,182.7 154.1,191.6 143.5,189 138.5,198.7 
		127.7,197.7 124.1,208 113.2,208.5 111.1,219.3 100.4,221.3 99.9,232.2 89.6,235.8 90.6,246.6 80.9,251.6 83.5,262.3 74.6,268.6 
		78.6,278.7 70.7,286.3 76.2,295.7 69.5,304.3 76.2,312.9 70.7,322.3 78.6,329.9 74.6,340 83.5,346.3 80.9,357 90.6,361.9 
		89.6,372.8 99.9,376.4 100.4,387.3 111.1,389.3 113.2,400.1 124.1,400.6 127.7,410.9 138.5,409.9 143.5,419.6 154.1,417 
		160.5,425.9 170.6,421.8 178.2,429.7 187.6,424.3 196.2,431 204.8,424.3 214.2,429.7 221.8,421.8 231.9,425.9 238.2,417 
		248.8,419.6 253.8,409.9 264.7,410.9 268.3,400.6 279.2,400.1 281.2,389.3 292,387.3 292.5,376.4 302.8,372.8 301.8,361.9 
		311.5,357 308.9,346.3 317.8,340 313.7,329.9 321.6,322.3 316.2,312.9 322.9,304.3 316.2,295.7 321.6,286.3 313.7,278.7 
		317.8,268.6 308.9,262.3 311.5,251.6 301.8,246.7 302.8,235.8 292.5,232.2 292,221.3 281.2,219.3 279.2,208.5 268.3,208 
		264.7,197.7 253.8,198.7 248.8,189 238.2,191.6 231.9,182.7 221.8,186.7 214.2,178.9 204.8,184.3 	"/>
	<polygon fill="#222222" points="21.9,274.8 44.2,304.6 21.9,334.4 96.4,334.4 96.4,274.8 	"/>
	<polygon fill="#222222" points="296,274.8 296,334.4 370.5,334.4 348.2,304.6 370.5,274.8 	"/>
	<polygon fill="#FCD900" points="196.2,174.2 187.6,180.9 178.2,175.5 170.6,183.4 160.5,179.3 154.1,188.2 143.5,185.6 
		138.5,195.3 127.7,194.3 124.1,204.6 113.2,205.1 111.1,215.9 100.4,217.9 99.9,228.8 89.6,232.4 90.6,243.3 80.9,248.3 
		83.5,258.9 74.6,265.2 78.6,275.3 70.7,282.9 76.2,292.3 69.5,300.9 76.2,309.5 70.7,318.9 78.6,326.5 74.6,336.6 83.5,343 
		80.9,353.6 90.6,358.6 89.6,369.4 99.9,373 100.4,383.9 111.1,386 113.2,396.7 124.1,397.2 127.7,407.5 138.5,406.5 143.5,416.2 
		154.1,413.6 160.5,422.5 170.6,418.5 178.2,426.4 187.6,420.9 196.2,427.6 204.8,420.9 214.2,426.4 221.8,418.5 231.9,422.5 
		238.2,413.6 248.8,416.2 253.8,406.5 264.7,407.5 268.3,397.2 279.2,396.7 281.2,386 292,383.9 292.5,373 302.8,369.4 301.8,358.6 
		311.5,353.6 308.9,343 317.8,336.6 313.7,326.5 321.6,318.9 316.2,309.5 322.9,300.9 316.2,292.3 321.6,282.9 313.7,275.3 
		317.8,265.2 308.9,258.9 311.5,248.3 301.8,243.3 302.8,232.4 292.5,228.8 292,217.9 281.2,215.9 279.2,205.1 268.3,204.6 
		264.7,194.3 253.8,195.3 248.8,185.6 238.2,188.2 231.9,179.3 221.8,183.4 214.2,175.5 204.8,180.9 	"/>
	<polygon fill="#FCD900" points="21.9,271.4 44.2,301.2 21.9,331 96.4,331 96.4,271.4 	"/>
	<polygon fill="#FCD900" points="296,271.4 296,331 370.5,331 348.2,301.2 370.5,271.4 	"/>
	<g>
		<path fill="#E22319" d="M311.2,300.9c0,63.5-51.5,115-115,115s-115-51.5-115-115c0-63.5,51.5-115,115-115S311.2,237.4,311.2,300.9
			"/>
		<path fill="#222222" d="M196.2,417.1c-64.1,0-116.2-52.1-116.2-116.2c0-64.1,52.1-116.2,116.2-116.2s116.2,52.1,116.2,116.2
			C312.4,365,260.3,417.1,196.2,417.1z M196.2,187.1c-62.8,0-113.8,51.1-113.8,113.8c0,62.8,51.1,113.8,113.8,113.8
			c62.8,0,113.8-51.1,113.8-113.8C310,238.2,258.9,187.1,196.2,187.1z"/>
	</g>
	<path fill-rule="evenodd" clip-rule="evenodd" fill="#8E022E" d="M96.4,349.6h48.7c12.9,13.5,31,21.9,51.1,21.9
		c20.1,0,38.3-8.4,51.1-21.9H296v-97.4h-48.7c-12.9-13.5-31-21.9-51.1-21.9c-20.1,0-38.3,8.4-51.1,21.9H96.4V349.6z"/>
	<path fill="#FFFFFF" d="M190.5,359.8h-1.5l-8.7-11.6c-0.4-0.6-1.1-0.9-1.8-0.9c-0.8,0-1.4,0.3-1.8,0.9l-8.7,11.6h-1.5l8.9-11.9
		c0.7-0.9,1.8-1.7,3.1-1.7c1.3,0,2.3,0.8,3,1.7L190.5,359.8z M187.6,359.8h-1.5l-1.9-2.6h-11.3l-1.9,2.6h-1.5l2.8-3.7h12.5
		L187.6,359.8z M184,354.9h-10.8l5.4-7.2L184,354.9z M181.7,353.7l-3.1-4.3l-3.1,4.3H181.7z"/>
	<path fill="#FFFFFF" d="M210.5,352.1c0,2.3-1.9,4.2-4.2,4.2h-11.1v3.5h-1.2v-4.7h12.3c1.7,0,3.1-1.4,3.1-3.1v-1.5
		c0-1.7-1.4-3.1-3.1-3.1h-13.4v12.2h-1.2v-13.4h14.6c2.3,0,4.2,1.9,4.2,4.2V352.1z M208.2,353.9h-14.1v-5.2h14.1V353.9z M207,349.9
		h-11.8v2.9H207V349.9z"/>
	<path fill="#FFFFFF" d="M230.8,352.1c0,2.3-1.9,4.2-4.2,4.2h-11.1v3.5h-1.2v-4.7h12.3c1.7,0,3.1-1.4,3.1-3.1v-1.5
		c0-1.7-1.4-3.1-3.1-3.1h-13.4v12.2h-1.2v-13.4h14.6c2.3,0,4.2,1.9,4.2,4.2V352.1z M228.5,353.9h-14.1v-5.2h14.1V353.9z
		 M227.4,349.9h-11.8v2.9h11.8V349.9z"/>
	<path fill="#8E022E" d="M37,324l16.5-22.8L37,278.4h41.5c0.1-0.6,0.2-1.2,0.4-1.8H33.4l17.9,24.7l-17.9,24.7h45.5
		c-0.1-0.6-0.3-1.2-0.4-1.8H37z"/>
	<g>
		<path fill="#8E022E" d="M64.6,319.2l13.4,1.3c-0.1-0.9-0.3-1.8-0.4-2.6L64.6,319.2z"/>
		<path fill="#8E022E" d="M64.6,315.6l12.8,1.3c-0.1-0.8-0.2-1.7-0.3-2.5L64.6,315.6z"/>
		<path fill="#8E022E" d="M64.6,312l12.4,1.2c-0.1-0.8-0.2-1.6-0.2-2.5L64.6,312z"/>
		<path fill="#8E022E" d="M64.6,308.3l12.1,1.2c-0.1-0.8-0.1-1.6-0.2-2.4L64.6,308.3z"/>
		<path fill="#8E022E" d="M64.6,304.7l11.9,1.2c0-0.8-0.1-1.6-0.1-2.4L64.6,304.7z"/>
		<path fill="#8E022E" d="M76.3,299.9l-11.8,1.2l11.8,1.2c0-0.4,0-0.9,0-1.3C76.3,300.6,76.3,300.2,76.3,299.9"/>
		<path fill="#8E022E" d="M64.6,297.4l11.8,1.2c0-0.8,0-1.6,0.1-2.4L64.6,297.4z"/>
		<path fill="#8E022E" d="M64.6,293.8l11.9,1.2c0-0.8,0.1-1.6,0.1-2.4L64.6,293.8z"/>
		<path fill="#8E022E" d="M64.6,290.2l12.1,1.2c0.1-0.8,0.1-1.6,0.2-2.4L64.6,290.2z"/>
		<path fill="#8E022E" d="M64.6,286.5l12.5,1.2c0.1-0.8,0.2-1.7,0.3-2.5L64.6,286.5z"/>
		<path fill="#8E022E" d="M77.5,284.2c0.1-0.9,0.3-1.8,0.4-2.6l-13.3,1.3L77.5,284.2z"/>
	</g>
	<path fill="#8E022E" d="M355.4,278.4l-16.5,22.8l16.5,22.8h-41.5c-0.1,0.6-0.2,1.2-0.4,1.8H359l-17.9-24.7l17.9-24.7h-45.5
		c0.1,0.6,0.2,1.2,0.4,1.8H355.4z"/>
	<g>
		<path fill="#8E022E" d="M327.8,283.2l-13.4-1.3c0.1,0.9,0.3,1.8,0.4,2.6L327.8,283.2z"/>
		<path fill="#8E022E" d="M327.8,286.8l-12.8-1.3c0.1,0.8,0.2,1.7,0.3,2.5L327.8,286.8z"/>
		<path fill="#8E022E" d="M327.8,290.4l-12.4-1.2c0.1,0.8,0.2,1.6,0.2,2.5L327.8,290.4z"/>
		<path fill="#8E022E" d="M327.8,294.1l-12.1-1.2c0.1,0.8,0.1,1.6,0.2,2.4L327.8,294.1z"/>
		<path fill="#8E022E" d="M327.8,297.7l-11.9-1.2c0,0.8,0.1,1.6,0.1,2.4L327.8,297.7z"/>
		<path fill="#8E022E" d="M316,302.5l11.8-1.2l-11.8-1.2c0,0.4,0,0.9,0,1.3C316.1,301.8,316,302.2,316,302.5"/>
		<path fill="#8E022E" d="M327.8,305l-11.8-1.2c0,0.8,0,1.6-0.1,2.4L327.8,305z"/>
		<path fill="#8E022E" d="M327.8,308.6l-11.9-1.2c0,0.8-0.1,1.6-0.1,2.4L327.8,308.6z"/>
		<path fill="#8E022E" d="M327.8,312.2l-12.1-1.2c-0.1,0.8-0.1,1.6-0.2,2.4L327.8,312.2z"/>
		<path fill="#8E022E" d="M327.8,315.9l-12.5-1.2c-0.1,0.8-0.2,1.7-0.3,2.5L327.8,315.9z"/>
		<path fill="#8E022E" d="M314.9,318.2c-0.1,0.9-0.3,1.8-0.4,2.6l13.3-1.3L314.9,318.2z"/>
	</g>
	<polygon fill="#FCD900" points="196.2,240.4 185.8,247.6 189.6,235.6 179.3,227.8 192.1,227.8 196.2,215.5 200.3,227.8 213,227.8 
		202.8,235.6 206.6,247.6 	"/>
	<path fill="#E22319" d="M196.2,217l3.8,11.3l11.7,0l-9.4,7.2l3.5,11l-9.6-6.6l-9.6,6.6l3.5-11l-9.4-7.2l11.7,0L196.2,217z
		 M196.2,214.1l-0.9,2.6l-3.6,10.7l-11.1,0l-2.7,0l2.1,1.6l8.9,6.8l-3.3,10.4l-0.8,2.5l2.2-1.5l9.1-6.3l9.1,6.3l2.2,1.5l-0.8-2.5
		l-3.3-10.4l8.9-6.8l2.1-1.6l-2.7,0l-11.1,0l-3.6-10.7L196.2,214.1z"/>
	<g>
		<g>
			<path fill="#6B0021" d="M133.3,374.7c0.4-0.5,0.7-1.1,0.4-2.1c1-0.2,1.8,0.9,1.9,1.7c0.9,0.1,2,0.7,1.9,1.7
				c-1.1-0.2-2,0.4-2.5,0.9c-0.9,1-2.1,2.3-2.2,3.4c-0.8-0.7-1.3-1.4-1.4-2.2c-0.8,0-1.8-0.5-3-1.5c-3.4-3.1-1.4-7.2,1-9.8
				c3.4-3.8,6.9-3.9,8.8-2.2c0.2,0.2,0.4,0.3,0.6,0.3c0.2,0,0.5,0,0.6,0.1c0.1,0.1,0.2,0.3,0.2,0.6c0,0.3,0.2,0.7,0.9,1.2
				c0.6,0.6,1.3,1.1,2,1.3c0,0.2-0.1,0.4-0.3,0.6c-0.1,0.2-0.5,0.3-0.8,0.4c-0.2,0-0.3,0.1-0.4,0.2c-0.1,0.1-0.1,0.5-0.2,0.6
				c-0.1,0.3-0.4,0.8-0.7,1.1c-0.3,0.3-0.8,0.6-1.2,0.7c-0.2,0-0.4,0.1-0.5,0.3c-0.2,0.2-0.3,0.5-0.4,1c-1-0.9-0.9-3.1-0.4-4.1
				c0.4-0.9,0.4-1.4,0-1.7c-1.8-1.6-3.5,0.3-5.2,2.1c-2.5,2.8-3.7,4.6-2.4,5.8C131.3,376.2,132.5,375.6,133.3,374.7"/>
			<path fill="#6B0021" d="M149.4,384.7c-2.4,3.7-4.9,3.9-7.5,2.2c-3-2-3.9-4.4-1.5-8.1l2-3.1c1.1-1.7,1.8-3.6,1.8-5.7
				c0.3,0,0.6,0.1,0.8,0.3c0.2,0.1,0.4,0.3,0.5,0.4c0.2,0.2,0.3,0.2,0.5,0.4c0.2,0.1,0.5,0.2,0.7,0.1c0.2,0,0.4-0.1,0.6-0.1
				c0.1,0.1,0.2,0.4,0.2,0.6c0,0.2,0.2,0.5,0.4,0.6c0.2,0.1,0.3,0.2,0.5,0.3c0.2,0.1,0.4,0.2,0.6,0.3c0.2,0.1,0.4,0.3,0.6,0.6
				c-1.8,0.9-3.2,2.4-4.3,4.1l-1.4,2.1c-1.5,2.4-2.3,4.2-0.7,5.2c1.4,0.9,2.8-0.5,4.3-2.9l1.4-2.1c1.1-1.7,2-3.4,1.8-5.6
				c0.3,0,0.5,0.1,0.7,0.2c0.2,0.1,0.4,0.3,0.5,0.4c0.1,0.1,0.4,0.3,0.6,0.4c0.2,0.1,0.4,0.1,0.6,0.1c0.1,0,0.4-0.2,0.6-0.1
				c0.1,0.1,0.2,0.4,0.2,0.6c0,0.2,0.1,0.4,0.3,0.5c0.2,0.1,0.4,0.3,0.6,0.3c0.2,0.1,0.4,0.1,0.6,0.2c0.2,0.1,0.3,0.3,0.4,0.5
				c-1.9,0.9-3.3,2.3-4.4,4L149.4,384.7z"/>
			<path fill="#6B0021" d="M156.1,388.5c-0.1,0-0.3,0-0.4,0.1c-0.3,0.4-0.8,1.1-1.1,1.7c-0.2,0.4,0,1.1,0.6,1.3
				c-0.7,1.6-2,1.4-2.5,1.2c-0.5-0.2-0.9-0.6-1.2-1.1c-0.5,0.1-1.1,0.1-1.6-0.1c-0.4-0.2-1.1-1-0.4-2.5c0.7,0.3,1.7,0.2,2.6-0.8
				c2-2,5.8-7.4,6.1-8.1c0.3-0.6,0.4-1,0.5-1.4c0.1,0,0.3,0,0.4,0.1c0.2,0.1,0.3,0.2,0.5,0.3c0.2,0.1,0.4,0.2,0.6,0.3
				c0.2,0.1,0.5,0.1,0.7,0c0.2-0.1,0.4-0.2,0.6-0.1c0.1,0.1,0.2,0.4,0.3,0.5c0.1,0.2,0.3,0.5,0.5,0.6c0.2,0.1,0.3,0.1,0.5,0.2
				c0.2,0,0.5,0.1,0.7,0.2c0.2,0.1,0.3,0.2,0.4,0.3c-0.2,0.3-0.3,0.6-0.5,0.9c-0.8,1.7-1.5,7.7-1.5,9.8c0,1.9,0.4,2.9,1,3.2
				c-0.7,1.6-2,1.4-2.5,1.2c-0.5-0.2-0.9-0.6-1.2-1.1c-0.5,0.1-1.1,0.1-1.6-0.1c-0.5-0.2-1.5-1.1-0.8-2.6c0.7,0.3,1.2,0,1.4-0.4
				c0.3-0.6,0.4-1.8,0.4-2c0-0.2-0.1-0.3-0.2-0.4L156.1,388.5z M158.5,387.1c0.2,0.1,0.4,0.1,0.6-0.1c0.4-0.9,0.7-2.5,0.4-3.4
				c-0.8,0.5-1.8,1.8-2.2,2.7c-0.1,0.3,0,0.4,0.1,0.4L158.5,387.1z"/>
			<path fill="#6B0021" d="M170.4,393.4c-0.2,0.9-0.7,3.3,0.7,3.9c-0.4,1.7-1.8,1.7-2.3,1.6c-0.6-0.1-1-0.5-1.4-0.9
				c-0.5,0.2-1,0.3-1.6,0.1c-0.5-0.1-1.6-0.8-1.2-2.5c1.5,0.2,2.2-2.2,2.4-3.1l0.9-3.5c0.5-1.9,0.6-4,0-5.9c0.3-0.1,0.6,0,0.9,0
				c0.2,0.1,0.5,0.2,0.6,0.3c0.2,0.1,0.3,0.1,0.5,0.2c0.2,0.1,0.5,0,0.8-0.1c0.2-0.1,0.4-0.3,0.5-0.2c0.1,0,0.2,0.3,0.4,0.4
				c0.1,0.2,0.3,0.4,0.6,0.5c0.2,0.1,0.5,0.1,0.9,0.2c0.5,0.1,0.9,0.2,1.5,0.3c2.8,0.7,4.5,2.8,3.8,5.2c-0.5,2-1.7,2.8-3.2,2.8
				c1,0.9,1.4,2.4,1.2,3.7c-0.2,1.9,0.5,2.6,1.2,2.8c-0.3,1.7-1.1,1.8-1.9,1.5c-0.4-0.1-0.9-0.4-1.2-0.9c-0.4,0.2-0.8,0.3-1.4,0.2
				c-1.1-0.3-1.1-1.6-0.4-2.6c0.3-2.5,0.2-4.1-2.2-4.8L170.4,393.4z M172.1,390.7c1.6,0.4,2.8-0.3,3.2-1.7c0.3-1.1-0.4-1.9-1.6-2.3
				c-1.5-0.4-1.7,0.6-2.2,2.5l-0.3,1.1c0,0.1,0,0.3,0.2,0.3L172.1,390.7z"/>
			<path fill="#6B0021" d="M185.8,396.8c-0.1,0-0.2,0-0.3,0.2c-0.2,0.4-0.5,1.3-0.5,2c0,0.5,0.4,1,1,1c-0.2,1.7-1.4,2-2,1.9
				c-0.6-0.1-1-0.3-1.5-0.7c-0.4,0.3-1,0.4-1.5,0.4c-0.4,0-1.3-0.6-1.2-2.2c0.7,0.1,1.6-0.3,2.2-1.5c1.2-2.5,3.1-8.9,3.1-9.6
				c0.1-0.7,0.1-1.1,0-1.5c0.1,0,0.2,0,0.4,0c0.2,0,0.4,0.1,0.5,0.1c0.2,0.1,0.5,0.1,0.7,0.1c0.2,0,0.5-0.1,0.6-0.2
				c0.1-0.1,0.3-0.3,0.5-0.3c0.1,0,0.3,0.3,0.4,0.4c0.2,0.2,0.4,0.3,0.7,0.4c0.2,0,0.4,0,0.6,0c0.2,0,0.5-0.1,0.7,0
				c0.2,0,0.4,0.1,0.5,0.2c-0.1,0.4-0.1,0.7-0.2,1c-0.2,1.9,1.1,7.8,1.7,9.8c0.6,1.9,1.3,2.6,2,2.7c-0.2,1.7-1.4,2-1.9,1.9
				c-0.6-0.1-1-0.3-1.5-0.7c-0.5,0.3-1,0.4-1.5,0.4c-0.6-0.1-1.7-0.5-1.6-2.3c0.7,0.1,1.1-0.4,1.2-0.8c0.1-0.6-0.2-1.8-0.3-2
				c-0.1-0.1-0.2-0.3-0.3-0.3L185.8,396.8z M187.6,394.7c0.2,0,0.5,0,0.5-0.3c0.1-1-0.1-2.6-0.7-3.4c-0.6,0.7-1.1,2.3-1.2,3.2
				c0,0.3,0.1,0.3,0.2,0.4L187.6,394.7z"/>
			<path fill="#6B0021" d="M200.4,396.8c0.1,0.9,0.4,3.4,1.8,3.5c0.1,1.7-1.1,2.2-1.6,2.2c-0.5,0-0.9-0.2-1.3-0.4
				c-0.4,0.3-0.7,0.6-1.2,0.6c-0.5,0-1.7-0.3-1.9-2c1.4-0.3,1.4-2.8,1.3-3.7l-0.3-3.6c-0.1-2-0.7-3.9-1.9-5.6
				c0.3-0.2,0.5-0.2,0.8-0.3c0.2,0,0.5,0,0.7,0c0.2,0,0.5,0,0.7,0c0.2,0,0.4-0.2,0.6-0.3c0.1-0.2,0.3-0.4,0.4-0.4
				c0.2,0,0.4,0.2,0.5,0.3c0.2,0.1,0.5,0.3,0.7,0.2c0.2,0,0.4,0,0.5-0.1c0.2-0.1,0.4-0.1,0.5-0.1c0.1,0,0.3,0,0.5,0.1
				c0.4,1.5,2.1,4.9,3.9,6.5c-0.1-2-0.6-4.5-1.5-6.8c0.2,0,0.4,0,0.6,0.1c0.2,0,0.4,0,0.5,0c0.4,0,0.7-0.2,0.8-0.4
				c0.1-0.1,0.3-0.4,0.4-0.4c0.2,0,0.4,0.2,0.5,0.3c0.2,0.1,0.4,0.3,0.7,0.2c0.2,0,0.4,0,0.6-0.1c0.2-0.1,0.5-0.1,0.8-0.2
				c-1,2.4-0.6,8.6-0.5,10.9c0.1,1.2,0.4,3.2,0.8,4.5c-0.7,0-1.5-0.1-2.1-0.4c-0.4,0.4-1.1,0.6-1.7,0.7c-0.7-2.6-2.4-6.3-4.9-9.1
				c-0.1,0.2-0.1,0.5-0.1,0.8L200.4,396.8z"/>
			<path fill="#6B0021" d="M220.5,393.8c0.2,0.9,1,3.3,2.4,3.1c0.4,1.7-0.7,2.3-1.2,2.5c-0.5,0.1-1.1,0-1.6-0.2
				c-0.3,0.4-0.8,0.7-1.3,0.9c-0.5,0.1-1.8,0-2.2-1.6c1.4-0.6,0.9-3,0.7-3.9l-0.9-3.5c-0.1-0.5-0.9-3.8-2-3.5
				c-0.7,0.2-0.7,1.2-0.5,2.3c0.2,1.6-0.4,2.8-1.9,3.2c0.1-0.5,0.1-0.8,0.1-1.1c-0.1-0.3-0.2-0.7-0.4-0.9c-0.2-0.3-0.6-0.7-0.7-1.2
				c-0.1-0.4-0.1-1-0.1-1.3c0-0.2,0.2-0.5,0.1-0.7c0-0.1-0.1-0.2-0.3-0.4c-0.2-0.2-0.4-0.5-0.5-0.8c-0.1-0.3,0-0.5,0-0.6
				c0.2,0,0.5,0,0.8,0.1c0.3,0.1,0.7,0,1.1-0.1c0.4-0.1,0.8-0.3,0.9-0.6c0.2-0.2,0.3-0.4,0.4-0.4c0.1,0,0.2,0,0.5,0.2
				c0.4,0.2,1,0.2,1.4,0.1c0.4-0.1,0.7-0.3,0.9-0.5c0.2-0.2,0.3-0.5,0.4-0.5c0.1,0,0.4,0.1,0.6,0.2c0.3,0.1,0.6,0.2,1,0.1
				c0.4-0.1,1-0.4,1.2-0.7c0.1-0.2,0.2-0.3,0.3-0.4c0.1,0,0.3,0,0.5,0.2c0.2,0.2,0.7,0.2,1.1,0.1c0.4-0.1,0.8-0.3,1-0.5
				c0.2-0.2,0.5-0.3,0.7-0.4c0.1,0.1,0.2,0.3,0.3,0.5c0.1,0.3,0,0.7-0.1,1c-0.1,0.2-0.1,0.3,0,0.4c0,0.1,0.3,0.4,0.4,0.5
				c0.2,0.3,0.4,0.8,0.5,1.2c0.1,0.4,0,1-0.1,1.3c0,0.3,0,0.8,0,1c0.1,0.3,0.2,0.5,0.5,0.9c-1.5,0.4-2.6-0.4-3.1-1.9
				c-0.4-1.1-0.8-2-1.5-1.8c-1.1,0.3-0.3,3.6-0.2,4.1L220.5,393.8z"/>
			<path fill="#6B0021" d="M228.5,387.5c-0.8-1.8-2-3.4-3.7-4.6c0.2-0.2,0.4-0.4,0.7-0.5c0.2-0.1,0.5-0.1,0.7-0.2
				c0.2,0,0.4-0.1,0.6-0.2c0.2-0.1,0.4-0.3,0.5-0.5c0.1-0.2,0.1-0.4,0.3-0.5c0.1-0.1,0.3,0,0.6,0.1c0.2,0.1,0.8,0.1,1.3-0.2
				c0.4-0.2,0.7-0.4,0.9-0.7c0.2-0.3,0.3-0.5,0.4-0.6c0.1-0.1,0.3,0,0.6,0.1c0.4,0.1,1.1-0.1,1.8-0.4c0.6-0.3,1-0.6,1.3-0.8
				c0.2-0.2,0.3-0.4,0.5-0.4c0.1,0,0.2,0.2,0.4,0.5c0.1,0.3,0.2,0.7,0.1,1c0,0.2,0,0.3,0,0.4c0,0.1,0.2,0.3,0.4,0.4
				c0.2,0.2,0.5,0.5,0.6,0.7c0.2,0.5,0.3,1,0.3,1.3c0,0.3,0,0.6,0.1,0.9c0.1,0.2,0.3,0.4,0.7,0.8c-1.7,0.6-3.3-0.6-3.8-1.2
				c-0.7-0.7-1.5-1-2.1-0.7c-1.4,0.6-0.7,2-0.1,3.5c0.3,0.7,0.9,1.3,1.4,1.1c0.4-0.2,0.5-0.5,0.4-0.8c-0.1-0.3-0.3-0.6-0.5-0.8
				c1.3-0.7,2,0,2.3,0.5c0.2,0.5,0.2,1,0.1,1.3c0.3,0.1,0.7,0.3,0.9,0.9c0.3,0.6,0.3,1.7-1.1,2.1c0-0.3-0.1-0.6-0.2-0.9
				c-0.1-0.3-0.5-0.4-0.8-0.2c-0.4,0.2-0.7,0.5-0.4,1.1c0.4,1,1.2,2.8,3.3,1.9c1.1-0.5,1.7-1.9,1.3-2.9c-0.1-0.3-0.4-0.7-0.8-0.9
				c1.2-0.5,2.7-0.7,3.4,0.8c0.2,0.5,0.2,1.1,0.1,1.6c0.4,0.2,1,0.5,1.4,1.5c-0.8-0.1-1.4,0-1.8,0.2c-0.4,0.2-0.8,0.5-1.3,1
				c-0.5,0.5-1.1,0.9-2,1.3c-1.2,0.5-2.6,0.7-3.3,0.6c-0.3,0.5-0.7,0.9-1.2,1.1c-0.5,0.2-1.8,0.4-2.5-1.2c1.2-0.8,0.4-3.1,0-4
				L228.5,387.5z"/>
			<path fill="#6B0021" d="M241.7,381.2c-1.1-1.7-2.6-3-4.4-4c0.2-0.3,0.4-0.5,0.6-0.6c0.2-0.1,0.4-0.2,0.6-0.3
				c0.2-0.1,0.3-0.2,0.5-0.3c0.2-0.1,0.4-0.4,0.4-0.6c0-0.2,0-0.5,0.2-0.6c0.1-0.1,0.3-0.1,0.6,0c0.3,0,0.8-0.1,1.2-0.4
				c0.4-0.2,0.7-0.5,0.8-0.8c0.1-0.3,0.2-0.6,0.3-0.6c0.1-0.1,0.3-0.1,0.6,0c0.4,0,1-0.3,1.7-0.7c0.5-0.4,0.9-0.7,1.1-1
				c0.1-0.2,0.3-0.4,0.4-0.5c0.1,0,0.3,0.2,0.4,0.4c0.2,0.3,0.3,0.6,0.3,0.9c0,0.2,0,0.3,0.1,0.4c0.1,0.1,0.3,0.3,0.5,0.4
				c0.2,0.1,0.6,0.4,0.7,0.6c0.3,0.4,0.4,0.9,0.5,1.3c0,0.3,0.1,0.6,0.2,0.8c0.1,0.2,0.4,0.4,0.8,0.7c-1.6,0.9-3.3-0.1-4-0.6
				c-0.8-0.6-1.6-0.8-2.2-0.4c-1.2,0.8-0.4,2.1,0.5,3.5c0.4,0.7,1.1,1.2,1.6,0.9c0.3-0.2,0.4-0.6,0.3-0.9c-0.2-0.2-0.4-0.5-0.6-0.7
				c1.2-0.9,2-0.4,2.3,0.1c0.3,0.5,0.3,0.9,0.3,1.3c0.3,0.1,0.7,0.2,1,0.7c0.4,0.6,0.6,1.6-0.8,2.3c0-0.3-0.2-0.6-0.3-0.8
				c-0.2-0.3-0.5-0.3-0.9-0.1c-0.4,0.3-0.6,0.6-0.3,1.2c0.6,0.9,1.7,2.6,3.6,1.4c1-0.6,1.4-2.1,0.8-3.1c-0.2-0.3-0.5-0.6-0.9-0.7
				c1.1-0.7,2.6-1.2,3.5,0.2c0.3,0.4,0.4,1.1,0.4,1.5c0.5,0.1,1.1,0.3,1.6,1.2c-0.8,0-1.4,0.2-1.8,0.4c-0.4,0.2-0.7,0.7-1.1,1.2
				c-0.4,0.6-0.9,1-1.8,1.6c-1.1,0.7-2.4,1.1-3.1,1.1c-0.2,0.5-0.5,1-1,1.3c-0.5,0.3-1.7,0.6-2.6-0.8c1.1-1-0.1-3.1-0.6-3.9
				L241.7,381.2z"/>
			<path fill="#6B0021" d="M253.4,373.2c-1.4-1.6-3-2.7-5-3.2c0-0.2,0.3-0.5,0.5-0.7c0.2-0.2,0.4-0.3,0.6-0.4
				c0.2-0.1,0.4-0.3,0.5-0.4c0.1-0.1,0.3-0.3,0.3-0.6c0-0.2,0-0.5,0.1-0.6c0.1-0.1,0.3,0,0.6-0.1c0.3,0,0.5-0.1,0.7-0.2
				c0.2-0.1,0.3-0.3,0.5-0.6c0.3-0.3,0.5-0.6,0.8-0.8c3.1-2.8,6.6-2.3,9.5,0.9c3.4,3.7,4.4,7.4,1.2,10.3c-1.2,1-2.2,1.5-3.1,1.7
				c-0.1,0.6-0.4,1.1-0.8,1.5c-0.4,0.4-1.6,0.9-2.7-0.4c0.9-1.1-0.6-3.1-1.3-3.8L253.4,373.2z M258.3,373.7c1.6,1.7,2.5,2.7,3.6,1.7
				c1.4-1.2,0.5-3-2.3-6.1c-2.1-2.3-3.7-3.2-5-2c-1.1,1-0.1,2.1,1.3,3.7L258.3,373.7z"/>
		</g>
		<g>
			<path fill="#6B0021" d="M136.5,239.3c-0.4,0.2-1,0.5-1.3,0.7c-0.3,0.3-0.6,0.8-0.8,1.4c-0.6,0.1-1.3-0.6-1.3-1.5
				c-0.5,0-1.1-0.3-1.6-0.7c-0.6-0.6-0.8-1.8-0.2-2.4c0.4-0.3,0.8-0.5,1.2-0.6c0.9,1.7,2.9,1.4,4.4,0c0.7-0.6,0.9-1.3,0.3-2
				c-0.7-0.7-1.7-0.6-2.7-0.2c-3.6,1.4-6.2,1.3-8.1-0.7c-1.6-1.7-1.4-4.1,0.5-5.9c0.2-0.2,0.4-0.4,0.4-0.6c0-0.2,0-0.5,0.1-0.6
				c0.1-0.1,0.3-0.1,0.6-0.1c0.4,0,0.7-0.3,1.4-0.9c0.6-0.5,0.9-1.2,1.2-1.8c0.2,0,0.4,0.1,0.5,0.3c0.2,0.2,0.4,0.6,0.4,0.9
				c0,0.2,0.1,0.3,0.2,0.4c0.1,0.1,0.5,0.2,0.6,0.3c0.3,0.1,0.8,0.5,1.1,0.8c0.3,0.3,0.5,0.9,0.6,1.2c0,0.2,0.1,0.4,0.3,0.6
				c0.2,0.2,0.5,0.4,0.9,0.5c-1,0.9-2.9,0.8-3.9,0.4c-1.3-0.5-2.2-0.4-2.8,0.2c-0.5,0.5-0.8,1.2-0.1,1.9c0.7,0.7,2.1,0.7,3.9,0.1
				c3.2-1.2,5.1-1.4,6.9,0.5c1.8,1.9,1.4,4.4-0.6,6.3C137.7,238.6,137,239.1,136.5,239.3"/>
			<path fill="#6B0021" d="M143.7,226.5c-0.1,0.1-0.2,0.2-0.1,0.4c0.1,0.5,0.5,1.3,0.9,1.8c0.3,0.4,0.9,0.5,1.5,0.1
				c1,1.4,0.2,2.4-0.3,2.8c-0.5,0.3-1,0.4-1.6,0.4c-0.2,0.5-0.5,1-0.9,1.3c-0.4,0.2-1.4,0.4-2.3-0.9c0.6-0.4,1-1.3,0.7-2.6
				c-0.7-2.7-3.3-8.8-3.7-9.4c-0.4-0.5-0.6-0.9-0.9-1.2c0.1-0.1,0.2-0.2,0.3-0.3c0.2-0.1,0.3-0.2,0.5-0.2c0.2-0.1,0.4-0.2,0.6-0.3
				c0.2-0.1,0.3-0.4,0.3-0.6c0-0.2,0-0.5,0.2-0.6c0.1-0.1,0.4,0,0.6,0c0.2,0,0.5,0,0.8-0.2c0.2-0.1,0.3-0.2,0.4-0.4
				c0.1-0.2,0.3-0.4,0.5-0.5c0.2-0.1,0.3-0.2,0.5-0.2c0.2,0.3,0.3,0.6,0.5,0.9c1.1,1.6,5.8,5.3,7.5,6.4c1.6,1,2.7,1.2,3.2,0.8
				c1,1.4,0.2,2.4-0.3,2.7c-0.5,0.3-1,0.4-1.6,0.4c-0.2,0.5-0.5,1-0.9,1.3c-0.5,0.3-1.7,0.7-2.7-0.7c0.6-0.4,0.6-1,0.4-1.4
				c-0.4-0.5-1.3-1.3-1.5-1.4c-0.1,0-0.3-0.1-0.4,0L143.7,226.5z M143.8,223.7c0.2-0.1,0.3-0.3,0.2-0.5c-0.6-0.8-1.8-1.9-2.7-2.2
				c0,0.9,0.6,2.5,1.1,3.3c0.2,0.2,0.3,0.2,0.4,0.1L143.8,223.7z"/>
			<path fill="#6B0021" d="M157.9,217.6c0.4,0.8,1.6,3,3,2.6c0.8,1.5-0.2,2.4-0.7,2.7c-0.5,0.2-1.1,0.3-1.6,0.2
				c-0.2,0.5-0.6,0.9-1.1,1.1c-0.5,0.2-1.8,0.4-2.5-1.1c1.2-0.8,0.3-3.1-0.2-4l-1.6-3.3c-0.2-0.5-1.7-3.5-2.7-3
				c-0.7,0.3-0.4,1.3,0,2.4c0.6,1.5,0.2,2.8-1.2,3.5c0-0.5,0-0.8-0.2-1.1c-0.1-0.2-0.4-0.6-0.6-0.8c-0.3-0.2-0.7-0.6-0.9-1
				c-0.2-0.4-0.4-1-0.4-1.3c0-0.2,0-0.6,0-0.7c-0.1-0.1-0.2-0.2-0.3-0.3c-0.3-0.1-0.5-0.4-0.7-0.7c-0.1-0.3-0.1-0.5-0.1-0.6
				c0.2,0,0.5-0.1,0.8-0.1c0.3,0,0.7-0.1,1.1-0.3c0.3-0.2,0.7-0.5,0.8-0.8c0.1-0.3,0.2-0.4,0.3-0.5c0.1-0.1,0.2,0,0.5,0.1
				c0.4,0.1,1-0.1,1.3-0.2c0.4-0.2,0.6-0.4,0.7-0.7c0.1-0.2,0.2-0.5,0.3-0.6c0.1-0.1,0.4,0.1,0.6,0.1c0.3,0.1,0.6,0,1-0.2
				c0.3-0.2,0.9-0.6,1-0.9c0.1-0.2,0.1-0.4,0.3-0.4c0.1-0.1,0.3,0,0.5,0.1c0.3,0.1,0.7,0,1.1-0.1c0.4-0.2,0.7-0.4,0.9-0.7
				c0.2-0.2,0.4-0.4,0.6-0.6c0.1,0.1,0.3,0.2,0.4,0.5c0.1,0.3,0.2,0.7,0.1,1c0,0.2,0,0.3,0.1,0.4c0.1,0.1,0.4,0.3,0.5,0.4
				c0.2,0.2,0.6,0.7,0.8,1.1c0.2,0.4,0.2,1,0.2,1.3c0,0.3,0.1,0.7,0.3,1c0.1,0.2,0.3,0.5,0.7,0.8c-1.4,0.7-2.6,0.1-3.5-1.2
				c-0.6-1-1.2-1.8-1.9-1.4c-1,0.5,0.5,3.5,0.7,4L157.9,217.6z"/>
			<path fill="#6B0021" d="M168.1,213.6c0.3,0.9,1.3,3.2,2.7,2.9c0.6,1.6-0.5,2.4-1,2.6c-0.5,0.2-1.1,0.1-1.6,0
				c-0.3,0.4-0.7,0.8-1.3,1c-0.5,0.2-1.8,0.2-2.4-1.4c1.3-0.7,0.6-3.1,0.3-3.9l-1.2-3.4c-0.7-1.9-1.7-3.6-3.3-4.9
				c0.2-0.2,0.5-0.4,0.7-0.5c0.2-0.1,0.5-0.1,0.7-0.1c0.2,0,0.4-0.1,0.7-0.2c0.2-0.1,0.4-0.3,0.5-0.5c0.1-0.2,0.2-0.4,0.3-0.5
				c0.1,0,0.4,0.1,0.5,0.2c0.2,0.1,0.5,0.1,0.8,0c0.2-0.1,0.3-0.1,0.5-0.2c0.2-0.1,0.4-0.2,0.6-0.3c0.3-0.1,0.5-0.1,0.9-0.1
				c-0.4,2-0.3,4,0.4,5.9L168.1,213.6z"/>
			<path fill="#6B0021" d="M176,217.2c-0.5,0-1.1-0.1-1.5,0c-0.5,0.1-0.9,0.4-1.4,0.8c-0.5-0.2-0.8-1.2-0.3-1.9
				c-0.4-0.2-0.8-0.8-1-1.4c-0.2-0.9,0.3-2,1.1-2.1c0.5-0.1,0.9-0.1,1.3,0.1c-0.1,2,1.8,2.7,3.8,2.3c0.9-0.2,1.5-0.7,1.3-1.5
				c-0.2-1-1.2-1.4-2.2-1.5c-3.8-0.7-6-2-6.6-4.7c-0.5-2.3,0.9-4.2,3.4-4.8c0.3-0.1,0.5-0.2,0.6-0.4c0.1-0.1,0.2-0.4,0.4-0.5
				c0.1,0,0.3,0.1,0.6,0.2c0.3,0.2,0.8,0.1,1.6-0.1c0.8-0.2,1.4-0.5,2-0.9c0.1,0.1,0.3,0.3,0.3,0.5c0.1,0.3,0,0.7-0.1,1
				c-0.1,0.2-0.1,0.3-0.1,0.4c0,0.1,0.3,0.4,0.4,0.5c0.2,0.3,0.4,0.8,0.5,1.2c0.1,0.5,0,1-0.1,1.3c-0.1,0.2-0.1,0.4-0.1,0.6
				c0.1,0.3,0.2,0.6,0.5,0.9c-1.3,0.3-2.8-0.8-3.5-1.6c-0.9-1.1-1.7-1.5-2.5-1.3c-0.7,0.2-1.3,0.6-1.1,1.6c0.2,1,1.4,1.7,3.3,2.1
				c3.4,0.7,5,1.4,5.6,4c0.6,2.6-1,4.5-3.8,5.1C177.4,217.2,176.6,217.3,176,217.2"/>
			<path fill="#6B0021" d="M184.7,206.2c-0.2-2-0.8-3.9-2-5.6c0.3-0.2,0.5-0.2,0.8-0.3c0.2,0,0.5,0,0.7,0c0.2,0,0.4,0,0.6,0
				c0.2,0,0.5-0.1,0.7-0.3c0.1-0.1,0.3-0.4,0.4-0.4c0.1,0,0.3,0.1,0.5,0.3c0.2,0.2,0.7,0.3,1.3,0.3c0.5,0,0.8-0.2,1.1-0.4
				c0.3-0.2,0.4-0.4,0.6-0.4c0.1,0,0.3,0.1,0.6,0.3c0.3,0.2,1,0.3,1.8,0.2c0.7,0,1.2-0.2,1.5-0.4c0.2-0.1,0.4-0.3,0.6-0.3
				c0.1,0,0.2,0.3,0.2,0.6c0,0.3-0.1,0.7-0.2,0.9c-0.1,0.2-0.1,0.3-0.1,0.4c0,0.1,0.1,0.4,0.2,0.5c0.1,0.2,0.3,0.6,0.3,0.9
				c0,0.5,0,1-0.2,1.3c-0.1,0.3-0.2,0.6-0.2,0.8c0,0.2,0.1,0.5,0.4,1c-1.8,0-2.9-1.7-3.2-2.4c-0.4-0.9-1.1-1.4-1.8-1.4
				c-1.5,0.1-1.4,1.6-1.2,3.3c0.1,0.8,0.4,1.6,1,1.5c0.4,0,0.7-0.3,0.6-0.6c0-0.3-0.1-0.6-0.2-0.9c1.5-0.2,1.9,0.6,2,1.2
				c0,0.6-0.1,1-0.4,1.3c0.3,0.2,0.5,0.5,0.5,1.1c0.1,0.7-0.3,1.7-1.7,1.6c0.1-0.3,0.1-0.6,0.1-0.9c0-0.3-0.3-0.5-0.7-0.5
				c-0.5,0-0.8,0.3-0.8,0.9c0.1,1.2,0.6,3.2,2.3,3.1c0,1.7-0.9,2.2-1.6,2.2c-0.7,0.1-1.2-0.1-2-0.4c-0.4,0.3-0.9,0.6-1.5,0.6
				c-0.6,0-1.8-0.3-1.9-2c1.4-0.3,1.4-2.8,1.3-3.7L184.7,206.2z"/>
			<path fill="#6B0021" d="M199.7,209.7c-0.1,0-0.2,0.1-0.3,0.2c-0.2,0.4-0.4,1.3-0.5,2c0,0.5,0.4,1,1.1,1c-0.1,1.7-1.4,2-1.9,2
				c-0.6,0-1.1-0.3-1.5-0.6c-0.4,0.3-0.9,0.5-1.5,0.5c-0.4,0-1.4-0.6-1.3-2.2c0.7,0,1.6-0.4,2.2-1.6c1.1-2.6,2.8-9,2.8-9.7
				c0-0.7,0.1-1.1,0-1.5c0.1,0,0.2-0.1,0.4-0.1c0.2,0,0.4,0.1,0.6,0.1c0.2,0.1,0.5,0.1,0.7,0.1c0.2,0,0.5-0.1,0.6-0.3
				c0.1-0.1,0.3-0.3,0.5-0.3c0.1,0,0.3,0.3,0.4,0.4c0.2,0.2,0.4,0.3,0.7,0.3c0.2,0,0.4,0,0.6,0c0.2,0,0.5-0.1,0.7-0.1
				c0.2,0,0.4,0.1,0.5,0.1c-0.1,0.4-0.1,0.7-0.1,1c-0.1,1.9,1.3,7.7,2,9.7c0.7,1.8,1.4,2.6,2.1,2.6c-0.1,1.7-1.3,2-1.9,2
				c-0.6,0-1.1-0.3-1.5-0.6c-0.5,0.3-1,0.5-1.5,0.4c-0.6,0-1.7-0.5-1.6-2.2c0.7,0,1.1-0.4,1.1-0.9c0-0.6-0.2-1.8-0.3-2
				c-0.1-0.1-0.2-0.3-0.3-0.3L199.7,209.7z M201.4,207.5c0.2,0,0.5,0,0.5-0.3c0.1-1-0.2-2.6-0.8-3.4c-0.5,0.7-1.1,2.3-1.1,3.3
				c0,0.3,0.1,0.3,0.2,0.4L201.4,207.5z"/>
			<path fill="#6B0021" d="M221.1,202.6c0.2-0.1,0.5-0.1,0.6-0.1c0.1,0,0.1,0.3,0,0.5c-0.1,0.3-0.2,0.5-0.3,0.7
				c-0.2,0.2-0.3,0.5-0.4,0.6c0,0.1,0,0.4,0.1,0.7c0.1,0.3,0.1,0.7,0,1.2c-0.1,0.4-0.4,0.8-0.6,1c-0.2,0.2-0.4,0.4-0.4,0.7
				c0,0.2,0,0.6,0.1,1.1c-1.3-0.3-2.3-2.2-2.4-3.4c-0.1-1-0.4-1.4-0.8-1.5c-2.3-0.5-2.8,2-3.4,4.5c-0.7,3.5-0.7,5.9,0.9,6.2
				c1.1,0.2,2.4-0.8,2.2-3.1c0.9,0.2,1.4,0.5,1.8,1c0.5-0.3,1.2-0.3,2-0.2c-0.4,0.6-0.6,1.2-0.9,1.6c-1.5,3.3-3.5,3.3-5.8,2.9
				c-4.5-0.9-4.9-5.5-4.2-8.9c1-5,3.9-6.9,6.5-6.4c0.2,0,0.6,0,0.7-0.1c0.1-0.1,0.4-0.3,0.5-0.3c0.2,0,0.3,0.3,0.4,0.4
				c0.2,0.2,0.6,0.4,1.5,0.6C219.9,202.6,220.7,202.6,221.1,202.6"/>
			<path fill="#6B0021" d="M228.7,215.2c-0.3,0.9-1,3.3,0.3,4c-0.6,1.6-1.9,1.6-2.4,1.4c-0.5-0.2-0.9-0.6-1.2-1
				c-0.5,0.2-1.1,0.2-1.6,0c-0.5-0.2-1.5-1-0.9-2.6c1.4,0.3,2.4-2,2.7-2.9l1.2-3.4c0.2-0.5,1.3-3.7,0.3-4c-0.7-0.3-1.2,0.6-1.8,1.6
				c-0.7,1.5-1.9,2.1-3.3,1.6c0.4-0.4,0.6-0.6,0.6-0.8c0.1-0.3,0.2-0.7,0.2-1c0-0.3-0.1-0.9,0.1-1.3c0.2-0.4,0.4-0.9,0.7-1.2
				c0.1-0.1,0.4-0.4,0.5-0.5c0-0.1,0-0.3,0-0.4c-0.1-0.3-0.1-0.7,0-1c0.1-0.3,0.2-0.4,0.3-0.5c0.2,0.1,0.4,0.3,0.6,0.5
				c0.2,0.2,0.5,0.4,1,0.6c0.4,0.1,0.8,0.1,1.1,0c0.3-0.1,0.4-0.1,0.5-0.1c0.1,0,0.2,0.2,0.3,0.4c0.2,0.4,0.7,0.7,1.1,0.8
				c0.4,0.1,0.7,0.1,1,0.1c0.3-0.1,0.5-0.2,0.6-0.2c0.1,0,0.2,0.3,0.4,0.5c0.1,0.2,0.4,0.5,0.8,0.6c0.4,0.1,1,0.2,1.4,0.1
				c0.2-0.1,0.4-0.2,0.5-0.1c0.1,0,0.2,0.2,0.3,0.4c0.1,0.3,0.5,0.6,0.8,0.7c0.4,0.2,0.8,0.2,1.1,0.2c0.3,0,0.6,0,0.8,0
				c0,0.1,0.1,0.4,0,0.6c-0.1,0.3-0.4,0.6-0.6,0.8c-0.1,0.1-0.2,0.2-0.3,0.3c0,0.1,0,0.5,0,0.7c0,0.3-0.1,0.9-0.2,1.3
				c-0.2,0.4-0.6,0.8-0.8,1.1c-0.2,0.2-0.4,0.6-0.5,0.9c-0.1,0.3-0.1,0.6-0.1,1.1c-1.4-0.5-1.9-1.8-1.5-3.4c0.3-1.1,0.4-2.1-0.3-2.4
				c-1-0.4-2.2,2.8-2.4,3.3L228.7,215.2z"/>
			<path fill="#6B0021" d="M238.6,219.7c-0.4,0.8-1.4,3.1-0.2,4c-0.8,1.5-2.1,1.3-2.6,1.1c-0.5-0.3-0.9-0.7-1.1-1.1
				c-0.5,0.1-1.1,0-1.6-0.2c-0.5-0.3-1.4-1.1-0.6-2.7c1.4,0.5,2.6-1.7,3.1-2.5l1.6-3.2c0.9-1.8,1.4-3.8,1.2-5.8
				c0.3,0,0.6,0.1,0.8,0.2c0.2,0.1,0.4,0.3,0.6,0.4c0.2,0.1,0.4,0.2,0.6,0.3c0.2,0.1,0.5,0.1,0.7,0c0.2-0.1,0.4-0.2,0.6-0.1
				c0.1,0.1,0.2,0.4,0.2,0.5c0.1,0.2,0.3,0.5,0.5,0.6c0.2,0.1,0.3,0.2,0.5,0.2c0.2,0,0.4,0.1,0.6,0.2c0.3,0.1,0.5,0.3,0.7,0.6
				c-1.8,1.1-3.1,2.6-4,4.4L238.6,219.7z"/>
			<path fill="#6B0021" d="M242.4,219.2c2.2-3.3,5.9-4.9,8.3-3.2c0.3,0.2,0.6,0.3,0.8,0.2c0.3,0,0.5-0.1,0.6,0
				c0.1,0.1,0.2,0.3,0.2,0.5c0.1,0.3,0.2,0.5,0.5,0.7c2.4,1.6,2.4,5.7,0.2,8.9c-2.1,3.1-5.8,5.8-9.8,3.1
				C239.2,226.7,240.4,222.3,242.4,219.2 M249.8,224c1.3-1.9,2.9-4.2,0.9-5.6c-2-1.3-3.5,1-4.8,2.9c-1.5,2.3-3.3,4.9-1.3,6.2
				C246.5,228.9,248.2,226.3,249.8,224"/>
			<path fill="#6B0021" d="M255.6,231.4c-0.6,0.7-2.2,2.6-1.3,3.8c-1.2,1.3-2.3,0.7-2.7,0.4c-0.4-0.3-0.5-0.8-0.6-1.3
				c-0.5,0-0.9-0.1-1.3-0.5c-0.4-0.3-1-1.4,0.2-2.7c1.2,0.8,3-0.9,3.6-1.6l2.5-2.7c1.4-1.5,2.3-3.2,2.7-5.3c0.3,0.1,0.5,0.2,0.8,0.4
				c0.2,0.2,0.3,0.4,0.4,0.5c0.1,0.2,0.3,0.4,0.5,0.5c0.2,0.1,0.4,0.2,0.6,0.2c0.2,0,0.5-0.1,0.6,0c0.1,0.1,0.1,0.4,0.1,0.6
				c0,0.2,0.1,0.5,0.3,0.7c0.1,0.1,0.3,0.2,0.4,0.3c0.2,0.1,0.4,0.2,0.5,0.3c0.1,0.1,0.2,0.3,0.3,0.4c-0.8,1.4-2.1,4.9-2,7.3
				c1.3-1.5,2.9-3.5,3.9-5.7c0.1,0.1,0.2,0.3,0.3,0.4c0.1,0.1,0.2,0.3,0.4,0.4c0.3,0.2,0.6,0.4,0.8,0.4c0.2,0,0.5-0.1,0.6,0
				c0.1,0.1,0.1,0.4,0.1,0.6c0,0.2,0.1,0.5,0.3,0.7c0.2,0.1,0.3,0.2,0.5,0.4c0.2,0.1,0.4,0.3,0.7,0.5c-2.4,0.9-6.7,5.5-8.2,7.1
				c-0.8,0.9-2.1,2.5-2.7,3.6c-0.5-0.5-1-1.1-1.1-1.8c-0.6-0.1-1.2-0.4-1.7-0.8c1.4-2.3,2.9-6.1,3.2-9.9c-0.3,0.1-0.5,0.3-0.7,0.5
				L255.6,231.4z"/>
		</g>
	</g>
	<g>
		<path fill="#FFFFFF" d="M125.6,362.2c-1.2,1-2.7,0.7-3.6-0.4c-0.9-1.1-0.8-2.6,0.4-3.5c1.2-1,2.7-0.7,3.5,0.3
			C126.9,359.7,126.8,361.2,125.6,362.2"/>
		<path fill="#FFFFFF" d="M269.8,358.4c1.2,1,1.3,2.5,0.4,3.6c-0.9,1.1-2.3,1.3-3.5,0.3c-1.2-1-1.3-2.5-0.4-3.5
			C267.1,357.7,268.6,357.4,269.8,358.4"/>
		<path fill="#FFFFFF" d="M125.6,239.6c1.2,1,1.3,2.5,0.4,3.6c-0.9,1.1-2.3,1.3-3.5,0.3c-1.2-1-1.3-2.5-0.4-3.5
			C123,238.9,124.5,238.7,125.6,239.6"/>
		<path fill="#FFFFFF" d="M269.8,243.4c-1.2,1-2.7,0.7-3.6-0.4c-0.9-1.1-0.8-2.6,0.4-3.5c1.2-1,2.7-0.7,3.5,0.3
			C271.1,240.9,271,242.5,269.8,243.4"/>
	</g>
	<g>
		<path fill="#FCD900" d="M141.4,336.3h-26.1c-0.6,0-1-0.4-1-1v1.2c0,0.6,0.4,1,1,1h26.1c2.8,0,4.6-1.8,4.6-4.6v-1.2
			C146,334.5,144.2,336.3,141.4,336.3"/>
		<path fill="#FCD900" d="M177.9,336.3h-28.2c-0.6,0-1-0.4-1-1v1.2c0,0.6,0.4,1,1,1h28.2c0.6,0,1-0.4,1-1v-1.2
			C179,335.9,178.6,336.3,177.9,336.3"/>
		<path fill="#FCD900" d="M195.8,336.3h-13.1c-0.6,0-1-0.4-1-1v1.2c0,0.6,0.4,1,1,1h13.1c0.6,0,1-0.4,1-1v-1.2
			C196.9,335.9,196.5,336.3,195.8,336.3"/>
		<path fill="#FCD900" d="M212.5,336.3h-13.1c-0.6,0-1-0.4-1-1v1.2c0,0.6,0.4,1,1,1h13.1c0.6,0,1-0.4,1-1v-1.2
			C213.5,335.9,213.1,336.3,212.5,336.3"/>
		<path fill="#FCD900" d="M245.1,336.3h-27.8c-0.6,0-1-0.4-1-1v1.2c0,0.6,0.4,1,1,1h27.8c0.6,0,1-0.4,1-1v-1.2
			C246.1,335.9,245.7,336.3,245.1,336.3"/>
		<path fill="#FCD900" d="M275.6,336.3h-22.6c-2.8,0-4.6-1.8-4.6-4.6v1.2c0,2.7,1.8,4.6,4.6,4.6h22.6c2.8,0,4.6-1.8,4.6-4.6v-1.2
			C280.2,334.5,278.4,336.3,275.6,336.3"/>
	</g>
	<g>
		<path fill="#FFFFFF" d="M146,330.6c0,2.7-1.8,4.6-4.6,4.6h-26.1c-0.6,0-1-0.4-1-1v-28.5c0-0.6,0.4-1,1-1h26.1
			c2.8,0,4.6,1.8,4.6,4.6V330.6z M129.3,331.6h1.5v-23.4h-1.5V331.6z"/>
		<path fill="#FFFFFF" d="M149.8,335.1c-0.6,0-1-0.4-1-1v-28.5c0-0.6,0.4-1,1-1h28.2c0.6,0,1,0.4,1,1v8.2c0,0.6-0.4,1-1,1h-14v1.5
			h14c0.6,0,1,0.4,1,1v5c0,0.6-0.4,1-1,1h-14v1.5h14c0.6,0,1,0.4,1,1v8.2c0,0.6-0.4,1-1,1H149.8z"/>
		<path fill="#FFFFFF" d="M213.5,334.1c0,0.6-0.4,1-1,1h-13.1c-0.6,0-1-0.4-1-1v-7.4h-1.5v7.4c0,0.6-0.4,1-1,1h-13.1
			c-0.6,0-1-0.4-1-1v-24.9c0-2.7,1.8-4.6,4.6-4.6h22.6c2.8,0,4.6,1.8,4.6,4.6V334.1z M198.4,308.2h-1.5v15h1.5V308.2z"/>
		<path fill="#FFFFFF" d="M217.3,335.1c-0.6,0-1-0.4-1-1v-28.5c0-0.6,0.4-1,1-1h13.1c0.6,0,1,0.4,1,1v19.3h13.6c0.6,0,1,0.4,1,1v8.2
			c0,0.6-0.4,1-1,1H217.3z"/>
		<path fill="#FFFFFF" d="M268.2,316.3c-1.9,0-3.1-1.2-3.1-3.1v-5.1h-1.5v9.7h13.6c1.9,0,3.1,1.2,3.1,3.1v9.7c0,2.7-1.8,4.6-4.6,4.6
			H253c-2.8,0-4.6-1.8-4.6-4.6v-6.1c0-0.6,0.4-1,1-1h13.1c0.6,0,1,0.4,1,1v7.1h1.5v-9.7h-13.6c-1.9,0-3.1-1.2-3.1-3.1v-9.7
			c0-2.7,1.8-4.6,4.6-4.6h22.6c2.8,0,4.6,1.8,4.6,4.6v6.1c0,0.6-0.4,1-1,1H268.2z"/>
	</g>
	<g>
		<path fill="#FCD900" d="M140.1,298.8h-7.9c-0.7,0-1.1-0.5-1.1-1.1v1.2c0,0.7,0.5,1.1,1.1,1.1h7.9c0.7,0,1.1-0.5,1.1-1.1v-1.2
			C141.2,298.4,140.8,298.8,140.1,298.8"/>
		<path fill="#FCD900" d="M157,298.8h-12.9c-0.7,0-1.1-0.5-1.1-1.1v1.2c0,0.7,0.5,1.1,1.1,1.1H157c0.7,0,1.1-0.5,1.1-1.1v-1.2
			C158.1,298.4,157.7,298.8,157,298.8"/>
		<path fill="#FCD900" d="M128.3,298.8h-12.9c-0.7,0-1.1-0.5-1.1-1.1v1.2c0,0.7,0.5,1.1,1.1,1.1h12.9c0.7,0,1.1-0.5,1.1-1.1v-1.2
			C129.4,298.4,129,298.8,128.3,298.8"/>
		<path fill="#FCD900" d="M193.4,298.8h-25.3c-3.1,0-5.1-2-5.1-5.1v1.2c0,3.1,2,5.1,5.1,5.1h25.3c3.1,0,5.1-2,5.1-5.1v-1.2
			C198.6,296.8,196.6,298.8,193.4,298.8"/>
		<path fill="#FCD900" d="M228.7,298.8H214c-0.7,0-1.1-0.5-1.1-1.1v1.2c0,0.7,0.5,1.1,1.1,1.1h14.7c0.7,0,1.1-0.5,1.1-1.1v-1.2
			C229.8,298.4,229.3,298.8,228.7,298.8"/>
		<path fill="#FCD900" d="M274.5,298.8h-25.3c-3.1,0-5.1-2-5.1-5.1v1.2c0,3.1,2,5.1,5.1,5.1h25.3c3.1,0,5.1-2,5.1-5.1v-1.2
			C279.6,296.8,277.6,298.8,274.5,298.8"/>
	</g>
	<g>
		<path fill="#FFFFFF" d="M153,263.5c3.1,0,5.1,2,5.1,5.1v27.9c0,0.7-0.5,1.1-1.1,1.1h-12.9c-0.7,0-1.1-0.5-1.1-1.1v-29h-1.7v29
			c0,0.7-0.5,1.1-1.1,1.1h-7.9c-0.7,0-1.1-0.5-1.1-1.1v-29h-1.7v29c0,0.7-0.5,1.1-1.1,1.1h-12.9c-0.7,0-1.1-0.5-1.1-1.1v-27.9
			c0-3.1,2-5.1,5.1-5.1H153z"/>
		<path fill="#FFFFFF" d="M198.6,292.5c0,3.1-2,5.1-5.1,5.1h-25.3c-3.1,0-5.1-2-5.1-5.1v-23.9c0-3.1,2-5.1,5.1-5.1h25.3
			c3.1,0,5.1,2,5.1,5.1V292.5z M181.7,267.4h-1.7v26.2h1.7V267.4z"/>
		<path fill="#FFFFFF" d="M212.8,274.9h-8.7c-0.7,0-1.1-0.5-1.1-1.1v-9.2c0-0.7,0.5-1.1,1.1-1.1h34.4c0.7,0,1.1,0.5,1.1,1.1v9.2
			c0,0.7-0.5,1.1-1.1,1.1h-8.7v21.6c0,0.7-0.5,1.1-1.1,1.1H214c-0.7,0-1.1-0.5-1.1-1.1V274.9z"/>
		<path fill="#FFFFFF" d="M279.6,292.5c0,3.1-2,5.1-5.1,5.1h-25.3c-3.1,0-5.1-2-5.1-5.1v-23.9c0-3.1,2-5.1,5.1-5.1h25.3
			c3.1,0,5.1,2,5.1,5.1V292.5z M262.7,267.4H261v26.2h1.7V267.4z"/>
	</g>
</g>
<rect x="21.9" y="482.9" fill="#00558F" width="348.7" height="60.5"/>
<rect x="21.9" y="482.9" fill="#00AEEF" width="109" height="60.5"/>
<g>
	<path fill="#FFFFFF" d="M83.7,521.1c-0.5-0.4-1.3-0.2-1.6,0.3c0,0-1,1.4-3.7,0.2c-1.1-0.7-3.2-1.4-5.5-1c1-1.7,1.8-3.9,2-6H78
		c0.7,0,1.2-0.5,1.2-1.2c0-0.7-0.5-1.2-1.2-1.2h-3.4c-0.2-0.6-0.4-1.1-0.7-1.6c0,0,0,0,0,0l-0.4-0.7c-1.1-1.8-0.5-4.1,1.3-5.2
		l0.4-0.2c0.9-0.5,2.6-0.5,3.7,0.1c0.8,0.5,1.1,1.2,1.1,2.3c0,0.7,0.5,1.2,1.2,1.2c0.7,0,1.2-0.5,1.2-1.2c0-1.9-0.8-3.4-2.3-4.3
		c-1.9-1.2-4.5-1-6-0.2c0,0,0,0-0.1,0l-0.4,0.3c-2.9,1.7-3.9,5.5-2.2,8.4l0.4,0.7c0,0,0,0,0,0c0,0,0,0,0,0c0.1,0.1,0.1,0.2,0.2,0.4
		h-2.5c-0.7,0-1.2,0.5-1.2,1.2c0,0.7,0.5,1.2,1.2,1.2h2.9c-0.2,3-2.6,6.5-3.8,8c-0.4,0.5-0.4,1.2,0.1,1.6c0.2,0.2,0.5,0.3,0.8,0.3
		c0.3,0,0.5-0.1,0.8-0.3c3.2-2.7,6.8-0.6,6.9-0.6c0,0,0.1,0,0.1,0.1c3.6,1.6,5.9,0,6.7-1.1C84.4,522.2,84.3,521.5,83.7,521.1z"/>
	<g>
		<path fill="#FFFFFF" d="M76.3,535.6L76.3,535.6c-0.4,0-0.7-0.2-1-0.5l-3.6-5l-5.6,2.5c-0.3,0.2-0.8,0.1-1.1-0.1
			c-0.3-0.2-0.6-0.5-0.6-0.9l-0.6-6.1l-6.1-0.6c-0.4,0-0.7-0.3-0.9-0.6c-0.2-0.3-0.2-0.7-0.1-1.1l2.5-5.6l-5-3.6
			c-0.3-0.2-0.5-0.6-0.5-1s0.2-0.7,0.5-1l5-3.6l-2.5-5.6c-0.2-0.3-0.1-0.8,0.1-1.1c0.2-0.3,0.5-0.6,0.9-0.6l6.1-0.6l0.6-6.1
			c0-0.4,0.3-0.7,0.6-0.9c0.3-0.2,0.7-0.2,1.1-0.1l5.6,2.5l3.6-5c0.4-0.6,1.5-0.6,1.9,0l3.6,5l5.6-2.5c0.3-0.2,0.8-0.1,1.1,0.1
			c0.3,0.2,0.5,0.5,0.6,0.9l0.6,6.1l6.1,0.6c0.4,0,0.7,0.3,0.9,0.6c0.2,0.3,0.2,0.7,0.1,1.1l-2.5,5.6l5,3.6c0.3,0.2,0.5,0.6,0.5,1
			s-0.2,0.7-0.5,1l-5,3.6l2.5,5.6c0.2,0.4,0.1,0.8-0.1,1.1c-0.2,0.3-0.5,0.6-0.9,0.6l-6.1,0.6l-0.6,6.1c0,0.4-0.3,0.7-0.6,0.9
			c-0.3,0.2-0.7,0.2-1.1,0.1l-5.6-2.5l-3.6,5C77.1,535.4,76.7,535.6,76.3,535.6z M72.2,527.4c0.4,0,0.7,0.2,1,0.5l3.2,4.4l3.2-4.4
			c0.3-0.5,0.9-0.6,1.5-0.4l5,2.3l0.5-5.4c0.1-0.6,0.5-1,1.1-1.1l5.4-0.5l-2.3-5c-0.2-0.5-0.1-1.1,0.4-1.5l4.4-3.2l-4.4-3.2
			c-0.5-0.3-0.6-0.9-0.4-1.5l2.3-5l-5.4-0.5c-0.6-0.1-1-0.5-1.1-1.1l-0.5-5.4l-5,2.3c-0.5,0.2-1.1,0.1-1.5-0.4l-3.2-4.4l-3.2,4.4
			c-0.3,0.5-0.9,0.6-1.5,0.4l-5-2.3l-0.5,5.4c-0.1,0.6-0.5,1-1.1,1.1l-5.4,0.5l2.3,5c0.2,0.5,0.1,1.1-0.4,1.5l-4.4,3.2l4.4,3.2
			c0.5,0.3,0.6,0.9,0.4,1.5l-2.3,5l5.4,0.5c0.6,0.1,1,0.5,1.1,1.1l0.5,5.4l5-2.3C71.9,527.5,72,527.4,72.2,527.4z"/>
	</g>
</g>
<polygon fill="#00AEEF" points="124.8,495.1 139.3,513.2 124.8,531.4 "/>
<rect x="21.9" y="549.5" fill="#008B95" width="348.7" height="60.5"/>
<rect x="21.9" y="549.5" fill="#00CAD9" width="109" height="60.5"/>
<g>
	<path fill="#FFFFFF" d="M100.3,597.3l-6.4-14.2c-0.1-0.3-0.3-0.5-0.6-0.6l-8-3.6c-0.3,0.7-0.7,1.4-1,2.1l7.6,3.4l5,10.9l-8.2-3.6
		l-2.8-7.3c-0.2-0.6-0.9-0.9-1.5-0.7c-0.6,0.2-0.9,0.9-0.7,1.5l2.6,6.8l-8.7,4.9v-5.2l-0.5,0.4c-0.2,0.1-0.4,0.2-0.7,0.2
		c-0.2,0-0.5-0.1-0.7-0.2l-0.5-0.3v5.2l-8.7-4.9l2.6-6.8c0.2-0.6-0.1-1.3-0.7-1.5c-0.6-0.2-1.3,0.1-1.5,0.7l-2.8,7.3l-8.2,3.6
		l4.9-10.9l7.6-3.4c-0.3-0.7-0.7-1.4-1-2.1l-7.9,3.6c-0.3,0.1-0.5,0.3-0.6,0.6l-6.4,14.2c-0.2,0.4-0.1,1,0.2,1.3
		c0.3,0.3,0.9,0.4,1.3,0.2l11-4.9l10.8,6.1c0.1,0,0.1,0.1,0.2,0.1c0,0,0.1,0,0.1,0c0.1,0,0.2,0,0.3,0c0.1,0,0.2,0,0.3,0
		c0,0,0.1,0,0.1,0c0.1,0,0.1,0,0.2-0.1l10.8-6.1l11,4.9c0.5,0.2,1,0.1,1.3-0.2C100.4,598.3,100.5,597.8,100.3,597.3z"/>
	<path fill="#FFFFFF" d="M76.3,590.3c0.4,0,0.8-0.2,1-0.6c0.9-1.6,9-15.3,9-20.4c0-5.5-4.5-10-10-10s-10,4.5-10,10
		c0,5.1,8.1,18.8,9,20.4C75.5,590,75.9,590.3,76.3,590.3z M76.3,561.7c4.2,0,7.7,3.4,7.7,7.7c0,3.3-4.8,12.5-7.7,17.4
		c-2.8-4.9-7.6-14.1-7.6-17.4C68.7,565.1,72.1,561.7,76.3,561.7z"/>
	<path fill="#FFFFFF" d="M82.1,569.3c0-3.2-2.6-5.8-5.8-5.8c-3.2,0-5.8,2.6-5.8,5.8c0,3.2,2.6,5.8,5.8,5.8
		C79.5,575.1,82.1,572.5,82.1,569.3z M72.9,569.3c0-1.9,1.5-3.4,3.4-3.4c1.9,0,3.4,1.5,3.4,3.4c0,1.9-1.5,3.4-3.4,3.4
		C74.5,572.7,72.9,571.2,72.9,569.3z"/>
</g>
<polygon fill="#00CAD9" points="124.8,561.6 139.3,579.8 124.8,598 "/>
<g>
	<path fill="#FFFFFF" d="M155.8,522v-19.1h6.2c1.4,0,2.5,0.1,3.2,0.3c1,0.3,1.9,0.7,2.7,1.4c1,0.8,1.7,1.9,2.1,3.3
		c0.5,1.3,0.7,2.8,0.7,4.5c0,1.4-0.2,2.7-0.5,3.8c-0.3,1.1-0.7,2-1.2,2.8c-0.5,0.7-1.1,1.3-1.7,1.7c-0.6,0.4-1.3,0.7-2.2,1
		s-1.8,0.3-2.9,0.3H155.8z M158.2,519.8h3.9c1.2,0,2.1-0.1,2.8-0.4s1.2-0.6,1.6-1c0.6-0.6,1-1.4,1.3-2.4c0.3-1,0.5-2.2,0.5-3.7
		c0-2-0.3-3.5-0.9-4.6c-0.6-1.1-1.4-1.8-2.3-2.2c-0.6-0.3-1.7-0.4-3.1-0.4h-3.8V519.8z"/>
	<path fill="#FFFFFF" d="M172.1,522l7-19.1h2.6l7.4,19.1h-2.7l-2.1-5.8h-7.6l-2,5.8H172.1z M177.3,514.2h6.2l-1.9-5.3
		c-0.6-1.6-1-2.9-1.3-4c-0.2,1.2-0.6,2.4-1,3.6L177.3,514.2z"/>
	<path fill="#FFFFFF" d="M191.4,522v-19.1h2.4V522H191.4z"/>
	<path fill="#FFFFFF" d="M197.9,522v-19.1h2.4v16.8h8.9v2.2H197.9z"/>
	<path fill="#FFFFFF" d="M215.4,522v-8.1l-7-11h2.9l3.6,5.7c0.7,1.1,1.3,2.2,1.8,3.2c0.5-1,1.2-2.1,2-3.4l3.5-5.6h2.8l-7.2,11v8.1
		H215.4z"/>
	<path fill="#FFFFFF" d="M233.7,522v-19.1h6.2c1.4,0,2.5,0.1,3.2,0.3c1,0.3,1.9,0.7,2.7,1.4c1,0.8,1.7,1.9,2.1,3.3
		c0.5,1.3,0.7,2.8,0.7,4.5c0,1.4-0.2,2.7-0.5,3.8c-0.3,1.1-0.7,2-1.2,2.8c-0.5,0.7-1.1,1.3-1.7,1.7c-0.6,0.4-1.3,0.7-2.2,1
		s-1.8,0.3-2.9,0.3H233.7z M236.1,519.8h3.9c1.2,0,2.1-0.1,2.8-0.4s1.2-0.6,1.6-1c0.6-0.6,1-1.4,1.3-2.4c0.3-1,0.5-2.2,0.5-3.7
		c0-2-0.3-3.5-0.9-4.6c-0.6-1.1-1.4-1.8-2.3-2.2c-0.6-0.3-1.7-0.4-3.1-0.4h-3.8V519.8z"/>
	<path fill="#FFFFFF" d="M252.1,522v-19.1h13.1v2.2h-10.7v5.8h10v2.2h-10v6.5h11.1v2.2H252.1z"/>
	<path fill="#FFFFFF" d="M267,522l7-19.1h2.6l7.4,19.1h-2.7l-2.1-5.8h-7.6l-2,5.8H267z M272.2,514.2h6.2l-1.9-5.3
		c-0.6-1.6-1-2.9-1.3-4c-0.2,1.2-0.6,2.4-1,3.6L272.2,514.2z"/>
	<path fill="#FFFFFF" d="M285.8,522v-19.1h2.4v16.8h8.9v2.2H285.8z"/>
	<path fill="#FFFFFF" d="M299.1,515.9l2.3-0.2c0.1,1,0.4,1.7,0.7,2.3s1,1.1,1.8,1.5s1.8,0.6,2.8,0.6c0.9,0,1.7-0.1,2.4-0.4
		c0.7-0.3,1.2-0.7,1.6-1.2c0.3-0.5,0.5-1,0.5-1.6c0-0.6-0.2-1.1-0.5-1.6c-0.3-0.4-0.9-0.8-1.6-1.1c-0.5-0.2-1.6-0.5-3.2-0.9
		c-1.7-0.4-2.8-0.8-3.5-1.2c-0.9-0.5-1.5-1.1-1.9-1.8c-0.4-0.7-0.6-1.5-0.6-2.4c0-1,0.3-1.9,0.8-2.7s1.3-1.5,2.3-1.9
		s2.1-0.7,3.3-0.7c1.3,0,2.5,0.2,3.6,0.7s1.8,1.1,2.4,2c0.6,0.9,0.8,1.9,0.9,3l-2.3,0.2c-0.1-1.2-0.5-2.1-1.3-2.7
		c-0.7-0.6-1.8-0.9-3.2-0.9c-1.5,0-2.5,0.3-3.2,0.8s-1,1.2-1,2c0,0.7,0.2,1.2,0.7,1.7c0.5,0.4,1.7,0.9,3.6,1.4s3.3,0.9,4,1.2
		c1.1,0.5,1.8,1.2,2.3,1.9c0.5,0.8,0.8,1.7,0.8,2.7c0,1-0.3,2-0.8,2.9c-0.6,0.9-1.3,1.6-2.4,2.1c-1,0.5-2.2,0.7-3.5,0.7
		c-1.6,0-3-0.3-4.1-0.8c-1.1-0.5-2-1.3-2.6-2.3C299.5,518.3,299.2,517.2,299.1,515.9z"/>
</g>
<g>
	<path fill="#FFFFFF" d="M155.1,579.3c0-3.2,0.8-5.6,2.4-7.4c1.6-1.8,3.7-2.7,6.3-2.7c1.7,0,3.2,0.4,4.5,1.3c1.3,0.8,2.4,2,3.1,3.5
		c0.7,1.5,1.1,3.2,1.1,5.1c0,1.9-0.4,3.7-1.1,5.2s-1.8,2.7-3.2,3.5c-1.4,0.8-2.8,1.2-4.4,1.2c-1.7,0-3.2-0.4-4.6-1.3
		s-2.4-2.1-3.1-3.6C155.4,582.6,155.1,581,155.1,579.3z M157.5,579.4c0,2.3,0.6,4.1,1.8,5.4c1.2,1.3,2.7,2,4.4,2
		c1.8,0,3.3-0.7,4.5-2s1.8-3.2,1.8-5.7c0-1.6-0.2-2.9-0.7-4.1c-0.5-1.2-1.2-2.1-2.2-2.7c-1-0.6-2-1-3.2-1c-1.7,0-3.2,0.6-4.4,1.8
		C158.1,574.4,157.5,576.5,157.5,579.4z"/>
	<path fill="#FFFFFF" d="M187.4,569.5h2.4v11c0,1.9-0.2,3.4-0.6,4.6c-0.4,1.1-1.2,2-2.2,2.8c-1.1,0.7-2.5,1.1-4.2,1.1
		c-1.7,0-3.1-0.3-4.2-0.9c-1.1-0.6-1.9-1.5-2.3-2.7c-0.5-1.2-0.7-2.8-0.7-4.8v-11h2.4v11c0,1.7,0.1,2.9,0.4,3.7
		c0.3,0.8,0.8,1.4,1.5,1.8s1.6,0.6,2.6,0.6c1.8,0,3-0.4,3.8-1.3c0.8-0.8,1.1-2.5,1.1-4.9V569.5z"/>
	<path fill="#FFFFFF" d="M193.8,588.6v-19.1h8c1.6,0,2.8,0.2,3.7,0.5s1.5,0.9,2,1.8c0.5,0.9,0.8,1.8,0.8,2.9c0,1.4-0.4,2.5-1.2,3.4
		s-2.1,1.5-3.9,1.8c0.6,0.3,1.1,0.6,1.4,1c0.7,0.7,1.4,1.5,2,2.5l3.2,5.2h-3l-2.4-4c-0.7-1.1-1.3-2-1.7-2.6c-0.5-0.6-0.9-1-1.2-1.3
		c-0.4-0.2-0.7-0.4-1.1-0.5c-0.3-0.1-0.7-0.1-1.3-0.1h-2.8v8.5H193.8z M196.2,578h5.2c1.1,0,2-0.1,2.6-0.4c0.6-0.2,1.1-0.6,1.4-1.1
		c0.3-0.5,0.5-1.1,0.5-1.7c0-0.9-0.3-1.6-0.9-2.2s-1.6-0.9-3-0.9h-5.7V578z"/>
	<path fill="#FFFFFF" d="M219.1,588.6v-19.1h2.4v16.8h8.9v2.2H219.1z"/>
	<path fill="#FFFFFF" d="M232.5,579.3c0-3.2,0.8-5.6,2.4-7.4c1.6-1.8,3.7-2.7,6.3-2.7c1.7,0,3.2,0.4,4.5,1.3c1.3,0.8,2.4,2,3.1,3.5
		c0.7,1.5,1.1,3.2,1.1,5.1c0,1.9-0.4,3.7-1.1,5.2s-1.8,2.7-3.2,3.5c-1.4,0.8-2.8,1.2-4.4,1.2c-1.7,0-3.2-0.4-4.6-1.3
		c-1.3-0.9-2.4-2.1-3.1-3.6C232.9,582.6,232.5,581,232.5,579.3z M235,579.4c0,2.3,0.6,4.1,1.8,5.4s2.7,2,4.4,2c1.8,0,3.3-0.7,4.5-2
		c1.2-1.3,1.8-3.2,1.8-5.7c0-1.6-0.2-2.9-0.7-4.1c-0.5-1.2-1.2-2.1-2.2-2.7c-1-0.6-2-1-3.2-1c-1.7,0-3.2,0.6-4.4,1.8
		C235.6,574.4,235,576.5,235,579.4z"/>
	<path fill="#FFFFFF" d="M265.9,581.9l2.4,0.6c-0.5,2.1-1.4,3.7-2.7,4.7c-1.3,1.1-2.9,1.6-4.8,1.6c-2,0-3.5-0.4-4.8-1.3
		s-2.2-2-2.8-3.6s-1-3.3-1-5.1c0-2,0.4-3.7,1.1-5.2c0.7-1.5,1.7-2.6,3.1-3.4c1.3-0.8,2.8-1.2,4.4-1.2c1.8,0,3.3,0.5,4.6,1.5
		c1.2,1,2.1,2.3,2.6,4.1l-2.4,0.6c-0.4-1.4-1-2.4-1.8-3c-0.8-0.6-1.8-0.9-3-0.9c-1.4,0-2.6,0.4-3.5,1.1c-0.9,0.7-1.6,1.6-2,2.8
		c-0.4,1.2-0.6,2.4-0.6,3.7c0,1.6,0.2,3,0.7,4.2c0.4,1.2,1.1,2.1,2.1,2.7s2,0.9,3.1,0.9c1.3,0,2.5-0.4,3.4-1.2
		C265,584.7,265.6,583.5,265.9,581.9z"/>
	<path fill="#FFFFFF" d="M269.3,588.6l7-19.1h2.6l7.4,19.1h-2.7l-2.1-5.8h-7.6l-2,5.8H269.3z M274.5,580.8h6.2l-1.9-5.3
		c-0.6-1.6-1-2.9-1.3-4c-0.2,1.2-0.6,2.4-1,3.6L274.5,580.8z"/>
	<path fill="#FFFFFF" d="M290.9,588.6v-16.8h-6v-2.2h14.4v2.2h-6v16.8H290.9z"/>
	<path fill="#FFFFFF" d="M302.2,588.6v-19.1h2.4v19.1H302.2z"/>
	<path fill="#FFFFFF" d="M308.1,579.3c0-3.2,0.8-5.6,2.4-7.4c1.6-1.8,3.7-2.7,6.3-2.7c1.7,0,3.2,0.4,4.5,1.3c1.3,0.8,2.4,2,3.1,3.5
		c0.7,1.5,1.1,3.2,1.1,5.1c0,1.9-0.4,3.7-1.1,5.2s-1.8,2.7-3.2,3.5c-1.4,0.8-2.8,1.2-4.4,1.2c-1.7,0-3.2-0.4-4.6-1.3
		c-1.3-0.9-2.4-2.1-3.1-3.6C308.4,582.6,308.1,581,308.1,579.3z M310.6,579.4c0,2.3,0.6,4.1,1.8,5.4s2.7,2,4.4,2
		c1.8,0,3.3-0.7,4.5-2c1.2-1.3,1.8-3.2,1.8-5.7c0-1.6-0.2-2.9-0.7-4.1c-0.5-1.2-1.2-2.1-2.2-2.7c-1-0.6-2-1-3.2-1
		c-1.7,0-3.2,0.6-4.4,1.8C311.2,574.4,310.6,576.5,310.6,579.4z"/>
	<path fill="#FFFFFF" d="M328.5,588.6v-19.1h2.5l9.5,15v-15h2.3v19.1h-2.5l-9.5-15v15H328.5z"/>
	<path fill="#FFFFFF" d="M346,582.5l2.3-0.2c0.1,1,0.4,1.7,0.7,2.3s1,1.1,1.8,1.5s1.8,0.6,2.8,0.6c0.9,0,1.7-0.1,2.4-0.4
		c0.7-0.3,1.2-0.7,1.6-1.2c0.3-0.5,0.5-1,0.5-1.6c0-0.6-0.2-1.1-0.5-1.6c-0.3-0.4-0.9-0.8-1.6-1.1c-0.5-0.2-1.6-0.5-3.2-0.9
		c-1.7-0.4-2.8-0.8-3.5-1.2c-0.9-0.5-1.5-1.1-1.9-1.8c-0.4-0.7-0.6-1.5-0.6-2.4c0-1,0.3-1.9,0.8-2.7s1.3-1.5,2.3-1.9
		s2.1-0.7,3.3-0.7c1.3,0,2.5,0.2,3.6,0.7s1.8,1.1,2.4,2c0.6,0.9,0.8,1.9,0.9,3l-2.3,0.2c-0.1-1.2-0.5-2.1-1.3-2.7
		c-0.7-0.6-1.8-0.9-3.2-0.9c-1.5,0-2.5,0.3-3.2,0.8s-1,1.2-1,2c0,0.7,0.2,1.2,0.7,1.7c0.5,0.4,1.7,0.9,3.6,1.4s3.3,0.9,4,1.2
		c1.1,0.5,1.8,1.2,2.3,1.9c0.5,0.8,0.8,1.7,0.8,2.7c0,1-0.3,2-0.8,2.9c-0.6,0.9-1.3,1.6-2.4,2.1c-1,0.5-2.2,0.7-3.5,0.7
		c-1.6,0-3-0.3-4.1-0.8c-1.1-0.5-2-1.3-2.6-2.3C346.4,584.9,346.1,583.8,346,582.5z"/>
</g>
<g>
</g>
<g>
</g>
<g>
</g>
<g>
</g>
<g>
</g>
<g>
</g>
<g>
</g>
<g>
</g>
<g>
</g>
<g>
</g>
<g>
</g>
</svg>
